<mxfile host="app.diagrams.net" agent="Mozilla/5.0 (Windows NT 10.0; Win64; x64) AppleWebKit/537.36 (KHTML, like Gecko) Chrome/139.0.0.0 Safari/537.36 Edg/139.0.0.0" version="28.0.9">
  <diagram name="Page-1" id="13e1069c-82ec-6db2-03f1-153e76fe0fe0">
    <mxGraphModel dx="4051" dy="2377" grid="1" gridSize="10" guides="1" tooltips="1" connect="1" arrows="1" fold="1" page="1" pageScale="1" pageWidth="1100" pageHeight="850" background="none" math="0" shadow="0">
      <root>
        <mxCell id="0" />
        <mxCell id="1" parent="0" />
        <mxCell id="Hi4JXIE11A1KlNq3GbC6-102" value="CheckCommandInput()" style="html=1;verticalAlign=bottom;endArrow=none;labelBackgroundColor=none;fontFamily=Verdana;fontSize=12;edgeStyle=elbowEdgeStyle;elbow=vertical;startArrow=block;startFill=1;endFill=0;" parent="1" source="Hi4JXIE11A1KlNq3GbC6-103" edge="1">
          <mxGeometry x="0.0056" relative="1" as="geometry">
            <mxPoint x="360" y="460.2" as="sourcePoint" />
            <mxPoint x="584.5" y="460" as="targetPoint" />
            <Array as="points" />
            <mxPoint as="offset" />
          </mxGeometry>
        </mxCell>
        <mxCell id="Hi4JXIE11A1KlNq3GbC6-93" value="CheckCommandInput()" style="html=1;verticalAlign=bottom;endArrow=none;labelBackgroundColor=none;fontFamily=Verdana;fontSize=12;edgeStyle=elbowEdgeStyle;elbow=vertical;startArrow=block;startFill=1;endFill=0;" parent="1" source="Hi4JXIE11A1KlNq3GbC6-94" edge="1">
          <mxGeometry x="0.0056" relative="1" as="geometry">
            <mxPoint x="360" y="370.2" as="sourcePoint" />
            <mxPoint x="584.5" y="370" as="targetPoint" />
            <Array as="points" />
            <mxPoint as="offset" />
          </mxGeometry>
        </mxCell>
        <mxCell id="Hi4JXIE11A1KlNq3GbC6-84" value="" style="shape=umlLifeline;perimeter=lifelinePerimeter;whiteSpace=wrap;html=1;container=1;dropTarget=0;collapsible=0;recursiveResize=0;outlineConnect=0;portConstraint=eastwest;newEdgeStyle={&quot;curved&quot;:0,&quot;rounded&quot;:0};participant=umlControl;" parent="1" vertex="1">
          <mxGeometry x="724" y="100" width="40" height="820" as="geometry" />
        </mxCell>
        <mxCell id="Hi4JXIE11A1KlNq3GbC6-89" value="" style="html=1;points=[[0,0,0,0,5],[0,1,0,0,-5],[1,0,0,0,5],[1,1,0,0,-5]];perimeter=orthogonalPerimeter;outlineConnect=0;targetShapes=umlLifeline;portConstraint=eastwest;newEdgeStyle={&quot;curved&quot;:0,&quot;rounded&quot;:0};" parent="Hi4JXIE11A1KlNq3GbC6-84" vertex="1">
          <mxGeometry x="16" y="435" width="10" height="50" as="geometry" />
        </mxCell>
        <mxCell id="Hi4JXIE11A1KlNq3GbC6-108" value="" style="html=1;points=[[0,0,0,0,5],[0,1,0,0,-5],[1,0,0,0,5],[1,1,0,0,-5]];perimeter=orthogonalPerimeter;outlineConnect=0;targetShapes=umlLifeline;portConstraint=eastwest;newEdgeStyle={&quot;curved&quot;:0,&quot;rounded&quot;:0};" parent="Hi4JXIE11A1KlNq3GbC6-84" vertex="1">
          <mxGeometry x="17" y="400" width="10" height="20" as="geometry" />
        </mxCell>
        <mxCell id="Zz4KqnxTDZ_naCeVEfz7-17" value="" style="html=1;points=[[0,0,0,0,5],[0,1,0,0,-5],[1,0,0,0,5],[1,1,0,0,-5]];perimeter=orthogonalPerimeter;outlineConnect=0;targetShapes=umlLifeline;portConstraint=eastwest;newEdgeStyle={&quot;curved&quot;:0,&quot;rounded&quot;:0};" parent="1" vertex="1">
          <mxGeometry x="739" y="310" width="10" height="20" as="geometry" />
        </mxCell>
        <mxCell id="Hi4JXIE11A1KlNq3GbC6-83" value="" style="shape=umlLifeline;perimeter=lifelinePerimeter;whiteSpace=wrap;html=1;container=1;dropTarget=0;collapsible=0;recursiveResize=0;outlineConnect=0;portConstraint=eastwest;newEdgeStyle={&quot;curved&quot;:0,&quot;rounded&quot;:0};participant=umlControl;" parent="1" vertex="1">
          <mxGeometry x="870" y="98" width="40" height="820" as="geometry" />
        </mxCell>
        <mxCell id="Hi4JXIE11A1KlNq3GbC6-75" value="" style="html=1;points=[[0,0,0,0,5],[0,1,0,0,-5],[1,0,0,0,5],[1,1,0,0,-5]];perimeter=orthogonalPerimeter;outlineConnect=0;targetShapes=umlLifeline;portConstraint=eastwest;newEdgeStyle={&quot;curved&quot;:0,&quot;rounded&quot;:0};" parent="Hi4JXIE11A1KlNq3GbC6-83" vertex="1">
          <mxGeometry x="15" y="622" width="10" height="40" as="geometry" />
        </mxCell>
        <mxCell id="Hi4JXIE11A1KlNq3GbC6-78" value="" style="shape=umlLifeline;perimeter=lifelinePerimeter;whiteSpace=wrap;html=1;container=1;dropTarget=0;collapsible=0;recursiveResize=0;outlineConnect=0;portConstraint=eastwest;newEdgeStyle={&quot;curved&quot;:0,&quot;rounded&quot;:0};participant=umlControl;" parent="1" vertex="1">
          <mxGeometry x="1025" y="99" width="40" height="820" as="geometry" />
        </mxCell>
        <mxCell id="Zz4KqnxTDZ_naCeVEfz7-15" value="return True" style="html=1;verticalAlign=bottom;endArrow=block;labelBackgroundColor=none;fontFamily=Verdana;fontSize=12;edgeStyle=elbowEdgeStyle;elbow=vertical;dashed=1;" parent="1" source="Zz4KqnxTDZ_naCeVEfz7-2" edge="1">
          <mxGeometry relative="1" as="geometry">
            <mxPoint x="350" y="290.2" as="sourcePoint" />
            <mxPoint x="574.5" y="290" as="targetPoint" />
            <Array as="points" />
          </mxGeometry>
        </mxCell>
        <mxCell id="Zz4KqnxTDZ_naCeVEfz7-14" value="ConsumeInput()" style="html=1;verticalAlign=bottom;endArrow=none;labelBackgroundColor=none;fontFamily=Verdana;fontSize=12;edgeStyle=elbowEdgeStyle;elbow=vertical;startArrow=block;startFill=1;endFill=0;" parent="1" source="Zz4KqnxTDZ_naCeVEfz7-2" edge="1">
          <mxGeometry relative="1" as="geometry">
            <mxPoint x="360" y="260.2" as="sourcePoint" />
            <mxPoint x="584.5" y="260" as="targetPoint" />
            <Array as="points" />
          </mxGeometry>
        </mxCell>
        <mxCell id="7baba1c4bc27f4b0-11" value="&lt;font style=&quot;font-size: 10px;&quot;&gt;RecieveInput()&lt;br&gt;&lt;/font&gt;" style="html=1;verticalAlign=bottom;endArrow=block;labelBackgroundColor=none;fontFamily=Verdana;fontSize=12;edgeStyle=elbowEdgeStyle;elbow=vertical;" parent="1" source="bdAAhVcYE1L4UBRm2Plw-7" target="JUn-Dw64Xo3fCcw52iQA-11" edge="1">
          <mxGeometry relative="1" as="geometry">
            <mxPoint x="155" y="180" as="sourcePoint" />
            <mxPoint x="240" y="180" as="targetPoint" />
            <Array as="points">
              <mxPoint x="240" y="180" />
            </Array>
          </mxGeometry>
        </mxCell>
        <mxCell id="bdAAhVcYE1L4UBRm2Plw-7" value="" style="shape=umlLifeline;perimeter=lifelinePerimeter;whiteSpace=wrap;html=1;container=1;dropTarget=0;collapsible=0;recursiveResize=0;outlineConnect=0;portConstraint=eastwest;newEdgeStyle={&quot;curved&quot;:0,&quot;rounded&quot;:0};participant=umlActor;" parent="1" vertex="1">
          <mxGeometry x="120" y="100" width="20" height="820" as="geometry" />
        </mxCell>
        <mxCell id="bdAAhVcYE1L4UBRm2Plw-8" value="" style="html=1;points=[[0,0,0,0,5],[0,1,0,0,-5],[1,0,0,0,5],[1,1,0,0,-5]];perimeter=orthogonalPerimeter;outlineConnect=0;targetShapes=umlLifeline;portConstraint=eastwest;newEdgeStyle={&quot;curved&quot;:0,&quot;rounded&quot;:0};" parent="bdAAhVcYE1L4UBRm2Plw-7" vertex="1">
          <mxGeometry x="5" y="60" width="10" height="30" as="geometry" />
        </mxCell>
        <mxCell id="bdAAhVcYE1L4UBRm2Plw-20" value="ผู้เล่น" style="text;html=1;align=center;verticalAlign=middle;whiteSpace=wrap;rounded=0;" parent="1" vertex="1">
          <mxGeometry x="100" y="70" width="60" height="30" as="geometry" />
        </mxCell>
        <mxCell id="Zz4KqnxTDZ_naCeVEfz7-1" value="" style="shape=umlLifeline;perimeter=lifelinePerimeter;whiteSpace=wrap;html=1;container=1;dropTarget=0;collapsible=0;recursiveResize=0;outlineConnect=0;portConstraint=eastwest;newEdgeStyle={&quot;curved&quot;:0,&quot;rounded&quot;:0};participant=umlControl;" parent="1" vertex="1">
          <mxGeometry x="375" y="100" width="40" height="820" as="geometry" />
        </mxCell>
        <mxCell id="Zz4KqnxTDZ_naCeVEfz7-2" value="" style="html=1;points=[[0,0,0,0,5],[0,1,0,0,-5],[1,0,0,0,5],[1,1,0,0,-5]];perimeter=orthogonalPerimeter;outlineConnect=0;targetShapes=umlLifeline;portConstraint=eastwest;newEdgeStyle={&quot;curved&quot;:0,&quot;rounded&quot;:0};" parent="Zz4KqnxTDZ_naCeVEfz7-1" vertex="1">
          <mxGeometry x="15" y="150" width="10" height="60" as="geometry" />
        </mxCell>
        <mxCell id="Zz4KqnxTDZ_naCeVEfz7-60" value="" style="html=1;points=[[0,0,0,0,5],[0,1,0,0,-5],[1,0,0,0,5],[1,1,0,0,-5]];perimeter=orthogonalPerimeter;outlineConnect=0;targetShapes=umlLifeline;portConstraint=eastwest;newEdgeStyle={&quot;curved&quot;:0,&quot;rounded&quot;:0};" parent="Zz4KqnxTDZ_naCeVEfz7-1" vertex="1">
          <mxGeometry x="15" y="90" width="10" height="30" as="geometry" />
        </mxCell>
        <mxCell id="Hi4JXIE11A1KlNq3GbC6-94" value="" style="html=1;points=[[0,0,0,0,5],[0,1,0,0,-5],[1,0,0,0,5],[1,1,0,0,-5]];perimeter=orthogonalPerimeter;outlineConnect=0;targetShapes=umlLifeline;portConstraint=eastwest;newEdgeStyle={&quot;curved&quot;:0,&quot;rounded&quot;:0};" parent="Zz4KqnxTDZ_naCeVEfz7-1" vertex="1">
          <mxGeometry x="15" y="260" width="10" height="60" as="geometry" />
        </mxCell>
        <mxCell id="Hi4JXIE11A1KlNq3GbC6-103" value="" style="html=1;points=[[0,0,0,0,5],[0,1,0,0,-5],[1,0,0,0,5],[1,1,0,0,-5]];perimeter=orthogonalPerimeter;outlineConnect=0;targetShapes=umlLifeline;portConstraint=eastwest;newEdgeStyle={&quot;curved&quot;:0,&quot;rounded&quot;:0};" parent="Zz4KqnxTDZ_naCeVEfz7-1" vertex="1">
          <mxGeometry x="15" y="350" width="10" height="60" as="geometry" />
        </mxCell>
        <mxCell id="Zz4KqnxTDZ_naCeVEfz7-3" value="&lt;br&gt;Fighter1&lt;br&gt;InputBufferModule" style="text;html=1;align=center;verticalAlign=middle;whiteSpace=wrap;rounded=0;" parent="1" vertex="1">
          <mxGeometry x="365" y="57.5" width="60" height="30" as="geometry" />
        </mxCell>
        <mxCell id="Zz4KqnxTDZ_naCeVEfz7-6" value="" style="shape=umlLifeline;perimeter=lifelinePerimeter;whiteSpace=wrap;html=1;container=1;dropTarget=0;collapsible=0;recursiveResize=0;outlineConnect=0;portConstraint=eastwest;newEdgeStyle={&quot;curved&quot;:0,&quot;rounded&quot;:0};participant=umlControl;" parent="1" vertex="1">
          <mxGeometry x="560" y="100" width="40" height="820" as="geometry" />
        </mxCell>
        <mxCell id="Zz4KqnxTDZ_naCeVEfz7-7" value="" style="html=1;points=[[0,0,0,0,5],[0,1,0,0,-5],[1,0,0,0,5],[1,1,0,0,-5]];perimeter=orthogonalPerimeter;outlineConnect=0;targetShapes=umlLifeline;portConstraint=eastwest;newEdgeStyle={&quot;curved&quot;:0,&quot;rounded&quot;:0};" parent="Zz4KqnxTDZ_naCeVEfz7-6" vertex="1">
          <mxGeometry x="15" y="150" width="10" height="20" as="geometry" />
        </mxCell>
        <mxCell id="Zz4KqnxTDZ_naCeVEfz7-61" value="" style="html=1;points=[[0,0,0,0,5],[0,1,0,0,-5],[1,0,0,0,5],[1,1,0,0,-5]];perimeter=orthogonalPerimeter;outlineConnect=0;targetShapes=umlLifeline;portConstraint=eastwest;newEdgeStyle={&quot;curved&quot;:0,&quot;rounded&quot;:0};" parent="Zz4KqnxTDZ_naCeVEfz7-6" vertex="1">
          <mxGeometry x="15" y="190" width="10" height="34" as="geometry" />
        </mxCell>
        <mxCell id="Hi4JXIE11A1KlNq3GbC6-96" value="" style="html=1;points=[[0,0,0,0,5],[0,1,0,0,-5],[1,0,0,0,5],[1,1,0,0,-5]];perimeter=orthogonalPerimeter;outlineConnect=0;targetShapes=umlLifeline;portConstraint=eastwest;newEdgeStyle={&quot;curved&quot;:0,&quot;rounded&quot;:0};" parent="Zz4KqnxTDZ_naCeVEfz7-6" vertex="1">
          <mxGeometry x="15" y="300" width="10" height="20" as="geometry" />
        </mxCell>
        <mxCell id="Hi4JXIE11A1KlNq3GbC6-95" value="" style="html=1;points=[[0,0,0,0,5],[0,1,0,0,-5],[1,0,0,0,5],[1,1,0,0,-5]];perimeter=orthogonalPerimeter;outlineConnect=0;targetShapes=umlLifeline;portConstraint=eastwest;newEdgeStyle={&quot;curved&quot;:0,&quot;rounded&quot;:0};" parent="Zz4KqnxTDZ_naCeVEfz7-6" vertex="1">
          <mxGeometry x="15" y="260" width="10" height="20" as="geometry" />
        </mxCell>
        <mxCell id="Hi4JXIE11A1KlNq3GbC6-104" value="" style="html=1;points=[[0,0,0,0,5],[0,1,0,0,-5],[1,0,0,0,5],[1,1,0,0,-5]];perimeter=orthogonalPerimeter;outlineConnect=0;targetShapes=umlLifeline;portConstraint=eastwest;newEdgeStyle={&quot;curved&quot;:0,&quot;rounded&quot;:0};" parent="Zz4KqnxTDZ_naCeVEfz7-6" vertex="1">
          <mxGeometry x="15" y="390" width="10" height="30" as="geometry" />
        </mxCell>
        <mxCell id="Hi4JXIE11A1KlNq3GbC6-105" value="" style="html=1;points=[[0,0,0,0,5],[0,1,0,0,-5],[1,0,0,0,5],[1,1,0,0,-5]];perimeter=orthogonalPerimeter;outlineConnect=0;targetShapes=umlLifeline;portConstraint=eastwest;newEdgeStyle={&quot;curved&quot;:0,&quot;rounded&quot;:0};" parent="Zz4KqnxTDZ_naCeVEfz7-6" vertex="1">
          <mxGeometry x="15" y="350" width="10" height="20" as="geometry" />
        </mxCell>
        <mxCell id="aaLv28ytoih7o6T027u6-8" value="" style="html=1;points=[[0,0,0,0,5],[0,1,0,0,-5],[1,0,0,0,5],[1,1,0,0,-5]];perimeter=orthogonalPerimeter;outlineConnect=0;targetShapes=umlLifeline;portConstraint=eastwest;newEdgeStyle={&quot;curved&quot;:0,&quot;rounded&quot;:0};" parent="Zz4KqnxTDZ_naCeVEfz7-6" vertex="1">
          <mxGeometry x="15" y="600" width="10" height="50" as="geometry" />
        </mxCell>
        <mxCell id="aaLv28ytoih7o6T027u6-13" value="" style="html=1;points=[[0,0,0,0,5],[0,1,0,0,-5],[1,0,0,0,5],[1,1,0,0,-5]];perimeter=orthogonalPerimeter;outlineConnect=0;targetShapes=umlLifeline;portConstraint=eastwest;newEdgeStyle={&quot;curved&quot;:0,&quot;rounded&quot;:0};" parent="Zz4KqnxTDZ_naCeVEfz7-6" vertex="1">
          <mxGeometry x="15" y="750" width="10" height="50" as="geometry" />
        </mxCell>
        <mxCell id="Zz4KqnxTDZ_naCeVEfz7-8" value="Fighter1&lt;div&gt;FighterAttackModule&lt;/div&gt;" style="text;html=1;align=center;verticalAlign=middle;whiteSpace=wrap;rounded=0;" parent="1" vertex="1">
          <mxGeometry x="550" y="70" width="60" height="30" as="geometry" />
        </mxCell>
        <mxCell id="Zz4KqnxTDZ_naCeVEfz7-10" value="Fighter1&lt;br&gt;StatModule" style="text;html=1;align=center;verticalAlign=middle;whiteSpace=wrap;rounded=0;" parent="1" vertex="1">
          <mxGeometry x="720" y="70" width="60" height="30" as="geometry" />
        </mxCell>
        <mxCell id="JUn-Dw64Xo3fCcw52iQA-8" value="" style="shape=umlLifeline;perimeter=lifelinePerimeter;whiteSpace=wrap;html=1;container=1;dropTarget=0;collapsible=0;recursiveResize=0;outlineConnect=0;portConstraint=eastwest;newEdgeStyle={&quot;curved&quot;:0,&quot;rounded&quot;:0};participant=umlControl;" parent="1" vertex="1">
          <mxGeometry x="230" y="100" width="40" height="820" as="geometry" />
        </mxCell>
        <mxCell id="JUn-Dw64Xo3fCcw52iQA-11" value="" style="html=1;points=[[0,0,0,0,5],[0,1,0,0,-5],[1,0,0,0,5],[1,1,0,0,-5]];perimeter=orthogonalPerimeter;outlineConnect=0;targetShapes=umlLifeline;portConstraint=eastwest;newEdgeStyle={&quot;curved&quot;:0,&quot;rounded&quot;:0};" parent="JUn-Dw64Xo3fCcw52iQA-8" vertex="1">
          <mxGeometry x="15" y="80" width="10" height="30" as="geometry" />
        </mxCell>
        <mxCell id="JUn-Dw64Xo3fCcw52iQA-12" value="&lt;font style=&quot;font-size: 11px;&quot;&gt;HandleBuffering()&lt;/font&gt;" style="html=1;verticalAlign=bottom;endArrow=block;labelBackgroundColor=none;fontFamily=Verdana;fontSize=12;edgeStyle=elbowEdgeStyle;elbow=vertical;" parent="1" source="JUn-Dw64Xo3fCcw52iQA-11" edge="1">
          <mxGeometry relative="1" as="geometry">
            <mxPoint x="275" y="190" as="sourcePoint" />
            <mxPoint x="390" y="190" as="targetPoint" />
            <Array as="points">
              <mxPoint x="385" y="190" />
            </Array>
          </mxGeometry>
        </mxCell>
        <mxCell id="JUn-Dw64Xo3fCcw52iQA-13" value="Fighter1&lt;br&gt;PlayerInputModule" style="text;html=1;align=center;verticalAlign=middle;whiteSpace=wrap;rounded=0;" parent="1" vertex="1">
          <mxGeometry x="220" y="70" width="60" height="30" as="geometry" />
        </mxCell>
        <mxCell id="Hi4JXIE11A1KlNq3GbC6-37" value="Fighter1&lt;br&gt;Hitbox" style="text;html=1;align=center;verticalAlign=middle;whiteSpace=wrap;rounded=0;" parent="1" vertex="1">
          <mxGeometry x="860" y="68" width="60" height="30" as="geometry" />
        </mxCell>
        <mxCell id="Hi4JXIE11A1KlNq3GbC6-43" value="" style="shape=umlLifeline;perimeter=lifelinePerimeter;whiteSpace=wrap;html=1;container=1;dropTarget=0;collapsible=0;recursiveResize=0;outlineConnect=0;portConstraint=eastwest;newEdgeStyle={&quot;curved&quot;:0,&quot;rounded&quot;:0};participant=umlControl;" parent="1" vertex="1">
          <mxGeometry x="925" y="99" width="40" height="820" as="geometry" />
        </mxCell>
        <mxCell id="Hi4JXIE11A1KlNq3GbC6-45" value="Fighter2&lt;br&gt;Hurtbox" style="text;html=1;align=center;verticalAlign=middle;whiteSpace=wrap;rounded=0;" parent="1" vertex="1">
          <mxGeometry x="915" y="69" width="60" height="30" as="geometry" />
        </mxCell>
        <mxCell id="Hi4JXIE11A1KlNq3GbC6-79" value="Fighter2&lt;br&gt;StatModule" style="text;html=1;align=center;verticalAlign=middle;whiteSpace=wrap;rounded=0;" parent="1" vertex="1">
          <mxGeometry x="1015" y="69" width="60" height="30" as="geometry" />
        </mxCell>
        <mxCell id="Hi4JXIE11A1KlNq3GbC6-82" value="alt" style="shape=umlFrame;whiteSpace=wrap;html=1;pointerEvents=0;" parent="1" vertex="1">
          <mxGeometry x="200" y="220" width="870" height="720" as="geometry" />
        </mxCell>
        <mxCell id="Zz4KqnxTDZ_naCeVEfz7-16" value="ConsumeStamina()" style="html=1;verticalAlign=bottom;endArrow=block;labelBackgroundColor=none;fontFamily=Verdana;fontSize=12;edgeStyle=elbowEdgeStyle;elbow=vertical;" parent="1" target="Zz4KqnxTDZ_naCeVEfz7-17" edge="1">
          <mxGeometry x="0.0012" relative="1" as="geometry">
            <mxPoint x="584" y="319.08" as="sourcePoint" />
            <mxPoint x="743.5" y="318.88" as="targetPoint" />
            <mxPoint as="offset" />
          </mxGeometry>
        </mxCell>
        <mxCell id="Hi4JXIE11A1KlNq3GbC6-35" value="" style="html=1;points=[[0,0,0,0,5],[0,1,0,0,-5],[1,0,0,0,5],[1,1,0,0,-5]];perimeter=orthogonalPerimeter;outlineConnect=0;targetShapes=umlLifeline;portConstraint=eastwest;newEdgeStyle={&quot;curved&quot;:0,&quot;rounded&quot;:0};" parent="1" vertex="1">
          <mxGeometry x="575" y="550" width="10" height="20" as="geometry" />
        </mxCell>
        <mxCell id="Hi4JXIE11A1KlNq3GbC6-69" value="" style="html=1;points=[[0,0,0,0,5],[0,1,0,0,-5],[1,0,0,0,5],[1,1,0,0,-5]];perimeter=orthogonalPerimeter;outlineConnect=0;targetShapes=umlLifeline;portConstraint=eastwest;newEdgeStyle={&quot;curved&quot;:0,&quot;rounded&quot;:0};" parent="1" vertex="1">
          <mxGeometry x="575" y="640" width="10" height="30" as="geometry" />
        </mxCell>
        <mxCell id="Zz4KqnxTDZ_naCeVEfz7-12" value="alt" style="shape=umlFrame;whiteSpace=wrap;html=1;pointerEvents=0;" parent="1" vertex="1">
          <mxGeometry x="450" y="530" width="620" height="410" as="geometry" />
        </mxCell>
        <mxCell id="Hi4JXIE11A1KlNq3GbC6-32" style="edgeStyle=orthogonalEdgeStyle;rounded=0;orthogonalLoop=1;jettySize=auto;html=1;curved=0;dashed=1;endArrow=block;endFill=1;" parent="1" edge="1">
          <mxGeometry relative="1" as="geometry">
            <mxPoint x="740" y="559" as="sourcePoint" />
            <mxPoint x="585" y="559" as="targetPoint" />
          </mxGeometry>
        </mxCell>
        <mxCell id="Hi4JXIE11A1KlNq3GbC6-33" value="&lt;span style=&quot;font-family: Verdana; font-size: 12px;&quot;&gt;return False&lt;/span&gt;" style="edgeLabel;html=1;align=center;verticalAlign=middle;resizable=0;points=[];labelBackgroundColor=none;" parent="Hi4JXIE11A1KlNq3GbC6-32" vertex="1" connectable="0">
          <mxGeometry x="0.2387" y="-3" relative="1" as="geometry">
            <mxPoint x="20" y="-6" as="offset" />
          </mxGeometry>
        </mxCell>
        <mxCell id="Hi4JXIE11A1KlNq3GbC6-54" value="" style="html=1;points=[[0,0,0,0,5],[0,1,0,0,-5],[1,0,0,0,5],[1,1,0,0,-5]];perimeter=orthogonalPerimeter;outlineConnect=0;targetShapes=umlLifeline;portConstraint=eastwest;newEdgeStyle={&quot;curved&quot;:0,&quot;rounded&quot;:0};" parent="1" vertex="1">
          <mxGeometry x="575" y="780" width="10" height="30" as="geometry" />
        </mxCell>
        <mxCell id="Hi4JXIE11A1KlNq3GbC6-55" style="edgeStyle=orthogonalEdgeStyle;rounded=0;orthogonalLoop=1;jettySize=auto;html=1;curved=0;dashed=1;endArrow=block;endFill=1;" parent="1" edge="1">
          <mxGeometry relative="1" as="geometry">
            <mxPoint x="740" y="789" as="sourcePoint" />
            <mxPoint x="585" y="789" as="targetPoint" />
          </mxGeometry>
        </mxCell>
        <mxCell id="Hi4JXIE11A1KlNq3GbC6-56" value="&lt;span style=&quot;font-family: Verdana; font-size: 12px;&quot;&gt;return True&lt;/span&gt;" style="edgeLabel;html=1;align=center;verticalAlign=middle;resizable=0;points=[];labelBackgroundColor=none;" parent="Hi4JXIE11A1KlNq3GbC6-55" vertex="1" connectable="0">
          <mxGeometry x="0.2387" y="-3" relative="1" as="geometry">
            <mxPoint x="20" y="-6" as="offset" />
          </mxGeometry>
        </mxCell>
        <mxCell id="Hi4JXIE11A1KlNq3GbC6-57" value="" style="html=1;points=[[0,0,0,0,5],[0,1,0,0,-5],[1,0,0,0,5],[1,1,0,0,-5]];perimeter=orthogonalPerimeter;outlineConnect=0;targetShapes=umlLifeline;portConstraint=eastwest;newEdgeStyle={&quot;curved&quot;:0,&quot;rounded&quot;:0};" parent="1" vertex="1">
          <mxGeometry x="884" y="855" width="10" height="40" as="geometry" />
        </mxCell>
        <mxCell id="Hi4JXIE11A1KlNq3GbC6-60" value="" style="html=1;points=[[0,0,0,0,5],[0,1,0,0,-5],[1,0,0,0,5],[1,1,0,0,-5]];perimeter=orthogonalPerimeter;outlineConnect=0;targetShapes=umlLifeline;portConstraint=eastwest;newEdgeStyle={&quot;curved&quot;:0,&quot;rounded&quot;:0};" parent="1" vertex="1">
          <mxGeometry x="939" y="865" width="10" height="70" as="geometry" />
        </mxCell>
        <mxCell id="Hi4JXIE11A1KlNq3GbC6-61" style="edgeStyle=orthogonalEdgeStyle;rounded=0;orthogonalLoop=1;jettySize=auto;html=1;curved=0;" parent="1" source="Hi4JXIE11A1KlNq3GbC6-57" target="Hi4JXIE11A1KlNq3GbC6-60" edge="1">
          <mxGeometry relative="1" as="geometry">
            <Array as="points">
              <mxPoint x="909" y="880" />
              <mxPoint x="909" y="880" />
            </Array>
          </mxGeometry>
        </mxCell>
        <mxCell id="Hi4JXIE11A1KlNq3GbC6-62" value="OnHit()" style="edgeLabel;html=1;align=center;verticalAlign=middle;resizable=0;points=[];" parent="Hi4JXIE11A1KlNq3GbC6-61" vertex="1" connectable="0">
          <mxGeometry x="-0.14" relative="1" as="geometry">
            <mxPoint x="3" y="-8" as="offset" />
          </mxGeometry>
        </mxCell>
        <mxCell id="Hi4JXIE11A1KlNq3GbC6-52" value="" style="line;strokeWidth=1;fillColor=none;align=left;verticalAlign=middle;spacingTop=-1;spacingLeft=3;spacingRight=3;rotatable=0;labelPosition=right;points=[];portConstraint=eastwest;strokeColor=inherit;dashed=1;" parent="1" vertex="1">
          <mxGeometry x="450" y="590" width="590" height="20" as="geometry" />
        </mxCell>
        <mxCell id="Hi4JXIE11A1KlNq3GbC6-53" value="" style="html=1;points=[[0,0,0,0,5],[0,1,0,0,-5],[1,0,0,0,5],[1,1,0,0,-5]];perimeter=orthogonalPerimeter;outlineConnect=0;targetShapes=umlLifeline;portConstraint=eastwest;newEdgeStyle={&quot;curved&quot;:0,&quot;rounded&quot;:0};" parent="1" vertex="1">
          <mxGeometry x="1039" y="885" width="10" height="30" as="geometry" />
        </mxCell>
        <mxCell id="Hi4JXIE11A1KlNq3GbC6-66" value="พลังงานไม่เพียงพอ" style="text;html=1;align=center;verticalAlign=middle;resizable=0;points=[];autosize=1;strokeColor=none;fillColor=none;" parent="1" vertex="1">
          <mxGeometry x="450" y="560" width="120" height="30" as="geometry" />
        </mxCell>
        <mxCell id="Hi4JXIE11A1KlNq3GbC6-67" value="" style="line;strokeWidth=1;fillColor=none;align=left;verticalAlign=middle;spacingTop=-1;spacingLeft=3;spacingRight=3;rotatable=0;labelPosition=right;points=[];portConstraint=eastwest;strokeColor=inherit;dashed=1;" parent="1" vertex="1">
          <mxGeometry x="450" y="750" width="590" height="20" as="geometry" />
        </mxCell>
        <mxCell id="Hi4JXIE11A1KlNq3GbC6-68" value="" style="html=1;points=[[0,0,0,0,5],[0,1,0,0,-5],[1,0,0,0,5],[1,1,0,0,-5]];perimeter=orthogonalPerimeter;outlineConnect=0;targetShapes=umlLifeline;portConstraint=eastwest;newEdgeStyle={&quot;curved&quot;:0,&quot;rounded&quot;:0};" parent="1" vertex="1">
          <mxGeometry x="740" y="610" width="10" height="50" as="geometry" />
        </mxCell>
        <mxCell id="Hi4JXIE11A1KlNq3GbC6-70" value="ไม่พบHurtbox &lt;br&gt;หรือ Hitboxหมดเวลา" style="text;html=1;align=left;verticalAlign=middle;resizable=0;points=[];autosize=1;strokeColor=none;fillColor=none;" parent="1" vertex="1">
          <mxGeometry x="456" y="600" width="130" height="40" as="geometry" />
        </mxCell>
        <mxCell id="Hi4JXIE11A1KlNq3GbC6-71" style="edgeStyle=orthogonalEdgeStyle;rounded=0;orthogonalLoop=1;jettySize=auto;html=1;curved=0;dashed=1;endArrow=block;endFill=1;" parent="1" edge="1">
          <mxGeometry relative="1" as="geometry">
            <mxPoint x="740" y="650" as="sourcePoint" />
            <mxPoint x="585" y="650" as="targetPoint" />
          </mxGeometry>
        </mxCell>
        <mxCell id="Hi4JXIE11A1KlNq3GbC6-72" value="&lt;span style=&quot;font-family: Verdana; font-size: 12px;&quot;&gt;return True&lt;/span&gt;" style="edgeLabel;html=1;align=center;verticalAlign=middle;resizable=0;points=[];labelBackgroundColor=none;" parent="Hi4JXIE11A1KlNq3GbC6-71" vertex="1" connectable="0">
          <mxGeometry x="0.2387" y="-3" relative="1" as="geometry">
            <mxPoint x="20" y="-6" as="offset" />
          </mxGeometry>
        </mxCell>
        <mxCell id="Hi4JXIE11A1KlNq3GbC6-63" style="edgeStyle=orthogonalEdgeStyle;rounded=0;orthogonalLoop=1;jettySize=auto;html=1;curved=0;" parent="1" source="Hi4JXIE11A1KlNq3GbC6-60" target="Hi4JXIE11A1KlNq3GbC6-53" edge="1">
          <mxGeometry relative="1" as="geometry">
            <mxPoint x="779" y="925" as="targetPoint" />
            <Array as="points" />
          </mxGeometry>
        </mxCell>
        <mxCell id="Hi4JXIE11A1KlNq3GbC6-64" value="TakeDamage()" style="edgeLabel;html=1;align=center;verticalAlign=middle;resizable=0;points=[];" parent="Hi4JXIE11A1KlNq3GbC6-63" vertex="1" connectable="0">
          <mxGeometry x="-0.119" y="2" relative="1" as="geometry">
            <mxPoint x="4" y="-7" as="offset" />
          </mxGeometry>
        </mxCell>
        <mxCell id="Hi4JXIE11A1KlNq3GbC6-80" value="&lt;div&gt;&lt;span style=&quot;background-color: transparent; color: light-dark(rgb(0, 0, 0), rgb(255, 255, 255));&quot;&gt;พบHurtbox&lt;/span&gt;&lt;/div&gt;" style="text;html=1;align=center;verticalAlign=middle;resizable=0;points=[];autosize=1;strokeColor=none;fillColor=none;" parent="1" vertex="1">
          <mxGeometry x="450" y="760" width="80" height="30" as="geometry" />
        </mxCell>
        <mxCell id="Hi4JXIE11A1KlNq3GbC6-85" value="" style="line;strokeWidth=1;fillColor=none;align=left;verticalAlign=middle;spacingTop=-1;spacingLeft=3;spacingRight=3;rotatable=0;labelPosition=right;points=[];portConstraint=eastwest;strokeColor=inherit;dashed=1;" parent="1" vertex="1">
          <mxGeometry x="200" y="330" width="839" height="20" as="geometry" />
        </mxCell>
        <mxCell id="Hi4JXIE11A1KlNq3GbC6-86" value="โจมตีปกติ" style="text;html=1;align=center;verticalAlign=middle;resizable=0;points=[];autosize=1;strokeColor=none;fillColor=none;" parent="1" vertex="1">
          <mxGeometry x="200" y="247.5" width="70" height="30" as="geometry" />
        </mxCell>
        <mxCell id="Hi4JXIE11A1KlNq3GbC6-87" value="ลำดับอินพุตท่าโจมตีพิเศษไม่ถูกต้อง" style="text;html=1;align=center;verticalAlign=middle;resizable=0;points=[];autosize=1;strokeColor=none;fillColor=none;labelBackgroundColor=default;" parent="1" vertex="1">
          <mxGeometry x="190" y="340" width="200" height="30" as="geometry" />
        </mxCell>
        <mxCell id="Hi4JXIE11A1KlNq3GbC6-88" value="" style="html=1;points=[[0,0,0,0,5],[0,1,0,0,-5],[1,0,0,0,5],[1,1,0,0,-5]];perimeter=orthogonalPerimeter;outlineConnect=0;targetShapes=umlLifeline;portConstraint=eastwest;newEdgeStyle={&quot;curved&quot;:0,&quot;rounded&quot;:0};" parent="1" vertex="1">
          <mxGeometry x="741" y="770" width="10" height="39" as="geometry" />
        </mxCell>
        <mxCell id="Hi4JXIE11A1KlNq3GbC6-92" value="return False" style="html=1;verticalAlign=bottom;endArrow=block;labelBackgroundColor=none;fontFamily=Verdana;fontSize=12;edgeStyle=elbowEdgeStyle;elbow=vertical;dashed=1;" parent="1" source="Hi4JXIE11A1KlNq3GbC6-94" edge="1">
          <mxGeometry relative="1" as="geometry">
            <mxPoint x="350" y="400.2" as="sourcePoint" />
            <mxPoint x="574.5" y="400" as="targetPoint" />
            <Array as="points" />
          </mxGeometry>
        </mxCell>
        <mxCell id="Hi4JXIE11A1KlNq3GbC6-98" value="" style="line;strokeWidth=1;fillColor=none;align=left;verticalAlign=middle;spacingTop=-1;spacingLeft=3;spacingRight=3;rotatable=0;labelPosition=right;points=[];portConstraint=eastwest;strokeColor=inherit;dashed=1;" parent="1" vertex="1">
          <mxGeometry x="200" y="425" width="839" height="20" as="geometry" />
        </mxCell>
        <mxCell id="Hi4JXIE11A1KlNq3GbC6-101" value="&lt;span style=&quot;color: rgba(0, 0, 0, 0); font-family: monospace; font-size: 0px; text-wrap-mode: nowrap;&quot;&gt;%3CmxGraphModel%3E%3Croot%3E%3CmxCell%20id%3D%220%22%2F%3E%3CmxCell%20id%3D%221%22%20parent%3D%220%22%2F%3E%3CmxCell%20id%3D%222%22%20value%3D%22%E0%B8%AD%E0%B8%B4%E0%B8%99%E0%B8%9E%E0%B8%B8%E0%B8%95%E0%B8%97%E0%B9%88%E0%B8%B2%E0%B9%82%E0%B8%88%E0%B8%A1%E0%B8%95%E0%B8%B5%E0%B8%9E%E0%B8%B4%E0%B9%80%E0%B8%A8%E0%B8%A9%E0%B9%84%E0%B8%A1%E0%B9%88%E0%B8%96%E0%B8%B9%E0%B8%81%E0%B8%95%E0%B9%89%E0%B8%AD%E0%B8%87%22%20style%3D%22text%3Bhtml%3D1%3Balign%3Dcenter%3BverticalAlign%3Dmiddle%3Bresizable%3D0%3Bpoints%3D%5B%5D%3Bautosize%3D1%3BstrokeColor%3Dnone%3BfillColor%3Dnone%3BlabelBackgroundColor%3Ddefault%3B%22%20vertex%3D%221%22%20parent%3D%221%22%3E%3CmxGeometry%20x%3D%22200%22%20y%3D%22340%22%20width%3D%22170%22%20height%3D%2230%22%20as%3D%22geometry%22%2F%3E%3C%2FmxCell%3E%3C%2Froot%3E%3C%2FmxGraphModel%3E&lt;/span&gt;" style="text;whiteSpace=wrap;html=1;align=left;" parent="1" vertex="1">
          <mxGeometry x="200" y="440" width="105" height="30" as="geometry" />
        </mxCell>
        <mxCell id="Hi4JXIE11A1KlNq3GbC6-106" value="return True" style="html=1;verticalAlign=bottom;endArrow=block;labelBackgroundColor=none;fontFamily=Verdana;fontSize=12;edgeStyle=elbowEdgeStyle;elbow=vertical;dashed=1;" parent="1" source="Hi4JXIE11A1KlNq3GbC6-103" edge="1">
          <mxGeometry relative="1" as="geometry">
            <mxPoint x="350" y="490.2" as="sourcePoint" />
            <mxPoint x="574.5" y="490" as="targetPoint" />
            <Array as="points" />
          </mxGeometry>
        </mxCell>
        <mxCell id="Hi4JXIE11A1KlNq3GbC6-107" value="ConsumeStamina()" style="html=1;verticalAlign=bottom;endArrow=block;labelBackgroundColor=none;fontFamily=Verdana;fontSize=12;edgeStyle=elbowEdgeStyle;elbow=horizontal;" parent="1" edge="1">
          <mxGeometry x="0.0012" relative="1" as="geometry">
            <mxPoint x="585" y="510.08" as="sourcePoint" />
            <mxPoint x="740" y="511" as="targetPoint" />
            <mxPoint as="offset" />
          </mxGeometry>
        </mxCell>
        <mxCell id="Hi4JXIE11A1KlNq3GbC6-187" value="CheckCommandInput()" style="html=1;verticalAlign=bottom;endArrow=none;labelBackgroundColor=none;fontFamily=Verdana;fontSize=12;edgeStyle=elbowEdgeStyle;elbow=vertical;startArrow=block;startFill=1;endFill=0;" parent="1" source="Hi4JXIE11A1KlNq3GbC6-205" edge="1">
          <mxGeometry x="0.0056" relative="1" as="geometry">
            <mxPoint x="1530" y="502.70000000000005" as="sourcePoint" />
            <mxPoint x="1754.5" y="502.5" as="targetPoint" />
            <Array as="points" />
            <mxPoint as="offset" />
          </mxGeometry>
        </mxCell>
        <mxCell id="Hi4JXIE11A1KlNq3GbC6-188" value="CheckCommandInput()" style="html=1;verticalAlign=bottom;endArrow=none;labelBackgroundColor=none;fontFamily=Verdana;fontSize=12;edgeStyle=elbowEdgeStyle;elbow=vertical;startArrow=block;startFill=1;endFill=0;" parent="1" source="Hi4JXIE11A1KlNq3GbC6-204" edge="1">
          <mxGeometry x="0.0056" relative="1" as="geometry">
            <mxPoint x="1530" y="412.70000000000005" as="sourcePoint" />
            <mxPoint x="1754.5" y="412.5" as="targetPoint" />
            <Array as="points" />
            <mxPoint as="offset" />
          </mxGeometry>
        </mxCell>
        <mxCell id="Hi4JXIE11A1KlNq3GbC6-195" value="return True" style="html=1;verticalAlign=bottom;endArrow=block;labelBackgroundColor=none;fontFamily=Verdana;fontSize=12;edgeStyle=elbowEdgeStyle;elbow=vertical;dashed=1;" parent="1" source="Hi4JXIE11A1KlNq3GbC6-202" edge="1">
          <mxGeometry x="0.5949" y="3" relative="1" as="geometry">
            <mxPoint x="1520" y="332.70000000000005" as="sourcePoint" />
            <mxPoint x="1744.5" y="332.5" as="targetPoint" />
            <Array as="points" />
            <mxPoint as="offset" />
          </mxGeometry>
        </mxCell>
        <mxCell id="Hi4JXIE11A1KlNq3GbC6-196" value="IsKeyHeld()" style="html=1;verticalAlign=bottom;endArrow=none;labelBackgroundColor=none;fontFamily=Verdana;fontSize=12;edgeStyle=elbowEdgeStyle;elbow=vertical;startArrow=block;startFill=1;endFill=0;" parent="1" source="Hi4JXIE11A1KlNq3GbC6-202" edge="1">
          <mxGeometry x="0.5468" relative="1" as="geometry">
            <mxPoint x="1530" y="302.70000000000005" as="sourcePoint" />
            <mxPoint x="1754.5" y="302.5" as="targetPoint" />
            <Array as="points" />
            <mxPoint as="offset" />
          </mxGeometry>
        </mxCell>
        <mxCell id="Hi4JXIE11A1KlNq3GbC6-197" value="&lt;font style=&quot;font-size: 10px;&quot;&gt;RecieveInput()&lt;br&gt;&lt;/font&gt;" style="html=1;verticalAlign=bottom;endArrow=block;labelBackgroundColor=none;fontFamily=Verdana;fontSize=12;edgeStyle=elbowEdgeStyle;elbow=vertical;" parent="1" source="Hi4JXIE11A1KlNq3GbC6-198" target="Hi4JXIE11A1KlNq3GbC6-218" edge="1">
          <mxGeometry relative="1" as="geometry">
            <mxPoint x="1325" y="222.5" as="sourcePoint" />
            <mxPoint x="1410" y="222.5" as="targetPoint" />
            <Array as="points">
              <mxPoint x="1410" y="222.5" />
            </Array>
          </mxGeometry>
        </mxCell>
        <mxCell id="Hi4JXIE11A1KlNq3GbC6-198" value="" style="shape=umlLifeline;perimeter=lifelinePerimeter;whiteSpace=wrap;html=1;container=1;dropTarget=0;collapsible=0;recursiveResize=0;outlineConnect=0;portConstraint=eastwest;newEdgeStyle={&quot;curved&quot;:0,&quot;rounded&quot;:0};participant=umlActor;" parent="1" vertex="1">
          <mxGeometry x="1290" y="142.5" width="20" height="577.5" as="geometry" />
        </mxCell>
        <mxCell id="Hi4JXIE11A1KlNq3GbC6-199" value="" style="html=1;points=[[0,0,0,0,5],[0,1,0,0,-5],[1,0,0,0,5],[1,1,0,0,-5]];perimeter=orthogonalPerimeter;outlineConnect=0;targetShapes=umlLifeline;portConstraint=eastwest;newEdgeStyle={&quot;curved&quot;:0,&quot;rounded&quot;:0};" parent="Hi4JXIE11A1KlNq3GbC6-198" vertex="1">
          <mxGeometry x="5" y="60" width="10" height="30" as="geometry" />
        </mxCell>
        <mxCell id="Hi4JXIE11A1KlNq3GbC6-200" value="ผู้เล่น" style="text;html=1;align=center;verticalAlign=middle;whiteSpace=wrap;rounded=0;" parent="1" vertex="1">
          <mxGeometry x="1270" y="112.5" width="60" height="30" as="geometry" />
        </mxCell>
        <mxCell id="Hi4JXIE11A1KlNq3GbC6-201" value="" style="shape=umlLifeline;perimeter=lifelinePerimeter;whiteSpace=wrap;html=1;container=1;dropTarget=0;collapsible=0;recursiveResize=0;outlineConnect=0;portConstraint=eastwest;newEdgeStyle={&quot;curved&quot;:0,&quot;rounded&quot;:0};participant=umlControl;" parent="1" vertex="1">
          <mxGeometry x="1545" y="142.5" width="40" height="577.5" as="geometry" />
        </mxCell>
        <mxCell id="Hi4JXIE11A1KlNq3GbC6-203" value="" style="html=1;points=[[0,0,0,0,5],[0,1,0,0,-5],[1,0,0,0,5],[1,1,0,0,-5]];perimeter=orthogonalPerimeter;outlineConnect=0;targetShapes=umlLifeline;portConstraint=eastwest;newEdgeStyle={&quot;curved&quot;:0,&quot;rounded&quot;:0};" parent="Hi4JXIE11A1KlNq3GbC6-201" vertex="1">
          <mxGeometry x="15" y="90" width="10" height="30" as="geometry" />
        </mxCell>
        <mxCell id="Hi4JXIE11A1KlNq3GbC6-204" value="" style="html=1;points=[[0,0,0,0,5],[0,1,0,0,-5],[1,0,0,0,5],[1,1,0,0,-5]];perimeter=orthogonalPerimeter;outlineConnect=0;targetShapes=umlLifeline;portConstraint=eastwest;newEdgeStyle={&quot;curved&quot;:0,&quot;rounded&quot;:0};" parent="Hi4JXIE11A1KlNq3GbC6-201" vertex="1">
          <mxGeometry x="15" y="260" width="10" height="60" as="geometry" />
        </mxCell>
        <mxCell id="Hi4JXIE11A1KlNq3GbC6-205" value="" style="html=1;points=[[0,0,0,0,5],[0,1,0,0,-5],[1,0,0,0,5],[1,1,0,0,-5]];perimeter=orthogonalPerimeter;outlineConnect=0;targetShapes=umlLifeline;portConstraint=eastwest;newEdgeStyle={&quot;curved&quot;:0,&quot;rounded&quot;:0};" parent="Hi4JXIE11A1KlNq3GbC6-201" vertex="1">
          <mxGeometry x="15" y="350" width="10" height="60" as="geometry" />
        </mxCell>
        <mxCell id="Hi4JXIE11A1KlNq3GbC6-206" value="&lt;br&gt;&lt;br&gt;InputBufferModule" style="text;html=1;align=center;verticalAlign=middle;whiteSpace=wrap;rounded=0;" parent="1" vertex="1">
          <mxGeometry x="1535" y="100" width="60" height="30" as="geometry" />
        </mxCell>
        <mxCell id="Hi4JXIE11A1KlNq3GbC6-207" value="" style="shape=umlLifeline;perimeter=lifelinePerimeter;whiteSpace=wrap;html=1;container=1;dropTarget=0;collapsible=0;recursiveResize=0;outlineConnect=0;portConstraint=eastwest;newEdgeStyle={&quot;curved&quot;:0,&quot;rounded&quot;:0};participant=umlControl;" parent="1" vertex="1">
          <mxGeometry x="1730" y="142.5" width="40" height="577.5" as="geometry" />
        </mxCell>
        <mxCell id="Hi4JXIE11A1KlNq3GbC6-208" value="" style="html=1;points=[[0,0,0,0,5],[0,1,0,0,-5],[1,0,0,0,5],[1,1,0,0,-5]];perimeter=orthogonalPerimeter;outlineConnect=0;targetShapes=umlLifeline;portConstraint=eastwest;newEdgeStyle={&quot;curved&quot;:0,&quot;rounded&quot;:0};" parent="Hi4JXIE11A1KlNq3GbC6-207" vertex="1">
          <mxGeometry x="15" y="150" width="10" height="20" as="geometry" />
        </mxCell>
        <mxCell id="Hi4JXIE11A1KlNq3GbC6-209" value="" style="html=1;points=[[0,0,0,0,5],[0,1,0,0,-5],[1,0,0,0,5],[1,1,0,0,-5]];perimeter=orthogonalPerimeter;outlineConnect=0;targetShapes=umlLifeline;portConstraint=eastwest;newEdgeStyle={&quot;curved&quot;:0,&quot;rounded&quot;:0};" parent="Hi4JXIE11A1KlNq3GbC6-207" vertex="1">
          <mxGeometry x="15" y="190" width="10" height="34" as="geometry" />
        </mxCell>
        <mxCell id="Hi4JXIE11A1KlNq3GbC6-210" value="" style="html=1;points=[[0,0,0,0,5],[0,1,0,0,-5],[1,0,0,0,5],[1,1,0,0,-5]];perimeter=orthogonalPerimeter;outlineConnect=0;targetShapes=umlLifeline;portConstraint=eastwest;newEdgeStyle={&quot;curved&quot;:0,&quot;rounded&quot;:0};" parent="Hi4JXIE11A1KlNq3GbC6-207" vertex="1">
          <mxGeometry x="15" y="300" width="10" height="20" as="geometry" />
        </mxCell>
        <mxCell id="Hi4JXIE11A1KlNq3GbC6-211" value="" style="html=1;points=[[0,0,0,0,5],[0,1,0,0,-5],[1,0,0,0,5],[1,1,0,0,-5]];perimeter=orthogonalPerimeter;outlineConnect=0;targetShapes=umlLifeline;portConstraint=eastwest;newEdgeStyle={&quot;curved&quot;:0,&quot;rounded&quot;:0};" parent="Hi4JXIE11A1KlNq3GbC6-207" vertex="1">
          <mxGeometry x="15" y="260" width="10" height="20" as="geometry" />
        </mxCell>
        <mxCell id="Hi4JXIE11A1KlNq3GbC6-212" value="" style="html=1;points=[[0,0,0,0,5],[0,1,0,0,-5],[1,0,0,0,5],[1,1,0,0,-5]];perimeter=orthogonalPerimeter;outlineConnect=0;targetShapes=umlLifeline;portConstraint=eastwest;newEdgeStyle={&quot;curved&quot;:0,&quot;rounded&quot;:0};" parent="Hi4JXIE11A1KlNq3GbC6-207" vertex="1">
          <mxGeometry x="15" y="390" width="10" height="30" as="geometry" />
        </mxCell>
        <mxCell id="Hi4JXIE11A1KlNq3GbC6-213" value="" style="html=1;points=[[0,0,0,0,5],[0,1,0,0,-5],[1,0,0,0,5],[1,1,0,0,-5]];perimeter=orthogonalPerimeter;outlineConnect=0;targetShapes=umlLifeline;portConstraint=eastwest;newEdgeStyle={&quot;curved&quot;:0,&quot;rounded&quot;:0};" parent="Hi4JXIE11A1KlNq3GbC6-207" vertex="1">
          <mxGeometry x="15" y="350" width="10" height="20" as="geometry" />
        </mxCell>
        <mxCell id="Hi4JXIE11A1KlNq3GbC6-214" value="MovementModule" style="text;html=1;align=center;verticalAlign=middle;whiteSpace=wrap;rounded=0;" parent="1" vertex="1">
          <mxGeometry x="1720" y="112.5" width="60" height="30" as="geometry" />
        </mxCell>
        <mxCell id="Hi4JXIE11A1KlNq3GbC6-217" value="" style="shape=umlLifeline;perimeter=lifelinePerimeter;whiteSpace=wrap;html=1;container=1;dropTarget=0;collapsible=0;recursiveResize=0;outlineConnect=0;portConstraint=eastwest;newEdgeStyle={&quot;curved&quot;:0,&quot;rounded&quot;:0};participant=umlControl;" parent="1" vertex="1">
          <mxGeometry x="1400" y="142.5" width="40" height="577.5" as="geometry" />
        </mxCell>
        <mxCell id="Hi4JXIE11A1KlNq3GbC6-218" value="" style="html=1;points=[[0,0,0,0,5],[0,1,0,0,-5],[1,0,0,0,5],[1,1,0,0,-5]];perimeter=orthogonalPerimeter;outlineConnect=0;targetShapes=umlLifeline;portConstraint=eastwest;newEdgeStyle={&quot;curved&quot;:0,&quot;rounded&quot;:0};" parent="Hi4JXIE11A1KlNq3GbC6-217" vertex="1">
          <mxGeometry x="15" y="80" width="10" height="30" as="geometry" />
        </mxCell>
        <mxCell id="Hi4JXIE11A1KlNq3GbC6-219" value="&lt;font style=&quot;font-size: 11px;&quot;&gt;HandleBuffering()&lt;/font&gt;" style="html=1;verticalAlign=bottom;endArrow=block;labelBackgroundColor=none;fontFamily=Verdana;fontSize=12;edgeStyle=elbowEdgeStyle;elbow=vertical;" parent="1" source="Hi4JXIE11A1KlNq3GbC6-218" edge="1">
          <mxGeometry relative="1" as="geometry">
            <mxPoint x="1445" y="232.5" as="sourcePoint" />
            <mxPoint x="1560" y="232.5" as="targetPoint" />
            <Array as="points">
              <mxPoint x="1555" y="232.5" />
            </Array>
          </mxGeometry>
        </mxCell>
        <mxCell id="Hi4JXIE11A1KlNq3GbC6-220" value="&lt;br&gt;PlayerInputModule" style="text;html=1;align=center;verticalAlign=middle;whiteSpace=wrap;rounded=0;" parent="1" vertex="1">
          <mxGeometry x="1390" y="112.5" width="60" height="30" as="geometry" />
        </mxCell>
        <mxCell id="Hi4JXIE11A1KlNq3GbC6-225" value="alt" style="shape=umlFrame;whiteSpace=wrap;html=1;pointerEvents=0;" parent="1" vertex="1">
          <mxGeometry x="1350" y="250" width="690" height="470" as="geometry" />
        </mxCell>
        <mxCell id="Hi4JXIE11A1KlNq3GbC6-227" value="" style="html=1;points=[[0,0,0,0,5],[0,1,0,0,-5],[1,0,0,0,5],[1,1,0,0,-5]];perimeter=orthogonalPerimeter;outlineConnect=0;targetShapes=umlLifeline;portConstraint=eastwest;newEdgeStyle={&quot;curved&quot;:0,&quot;rounded&quot;:0};" parent="1" vertex="1">
          <mxGeometry x="1745" y="592.5" width="10" height="20" as="geometry" />
        </mxCell>
        <mxCell id="Hi4JXIE11A1KlNq3GbC6-228" value="" style="html=1;points=[[0,0,0,0,5],[0,1,0,0,-5],[1,0,0,0,5],[1,1,0,0,-5]];perimeter=orthogonalPerimeter;outlineConnect=0;targetShapes=umlLifeline;portConstraint=eastwest;newEdgeStyle={&quot;curved&quot;:0,&quot;rounded&quot;:0};" parent="1" vertex="1">
          <mxGeometry x="1745" y="682.5" width="10" height="27.5" as="geometry" />
        </mxCell>
        <mxCell id="Hi4JXIE11A1KlNq3GbC6-230" style="edgeStyle=orthogonalEdgeStyle;rounded=0;orthogonalLoop=1;jettySize=auto;html=1;curved=0;dashed=1;endArrow=block;endFill=1;" parent="1" edge="1">
          <mxGeometry relative="1" as="geometry">
            <mxPoint x="1910" y="601.5" as="sourcePoint" />
            <mxPoint x="1755" y="601.5" as="targetPoint" />
          </mxGeometry>
        </mxCell>
        <mxCell id="Hi4JXIE11A1KlNq3GbC6-231" value="&lt;span style=&quot;font-family: Verdana; font-size: 12px;&quot;&gt;return False&lt;/span&gt;" style="edgeLabel;html=1;align=center;verticalAlign=middle;resizable=0;points=[];labelBackgroundColor=none;" parent="Hi4JXIE11A1KlNq3GbC6-230" vertex="1" connectable="0">
          <mxGeometry x="0.2387" y="-3" relative="1" as="geometry">
            <mxPoint x="20" y="-6" as="offset" />
          </mxGeometry>
        </mxCell>
        <mxCell id="Hi4JXIE11A1KlNq3GbC6-248" style="edgeStyle=orthogonalEdgeStyle;rounded=0;orthogonalLoop=1;jettySize=auto;html=1;curved=0;dashed=1;endArrow=block;endFill=1;" parent="1" edge="1">
          <mxGeometry relative="1" as="geometry">
            <mxPoint x="1910" y="692.5" as="sourcePoint" />
            <mxPoint x="1755" y="692.5" as="targetPoint" />
          </mxGeometry>
        </mxCell>
        <mxCell id="Hi4JXIE11A1KlNq3GbC6-249" value="&lt;span style=&quot;font-family: Verdana; font-size: 12px;&quot;&gt;return True&lt;/span&gt;" style="edgeLabel;html=1;align=center;verticalAlign=middle;resizable=0;points=[];labelBackgroundColor=none;" parent="Hi4JXIE11A1KlNq3GbC6-248" vertex="1" connectable="0">
          <mxGeometry x="0.2387" y="-3" relative="1" as="geometry">
            <mxPoint x="20" y="-6" as="offset" />
          </mxGeometry>
        </mxCell>
        <mxCell id="Hi4JXIE11A1KlNq3GbC6-255" value="" style="line;strokeWidth=1;fillColor=none;align=left;verticalAlign=middle;spacingTop=-1;spacingLeft=3;spacingRight=3;rotatable=0;labelPosition=right;points=[];portConstraint=eastwest;strokeColor=inherit;dashed=1;" parent="1" vertex="1">
          <mxGeometry x="1350" y="470" width="689" height="20" as="geometry" />
        </mxCell>
        <mxCell id="Hi4JXIE11A1KlNq3GbC6-259" value="return False" style="html=1;verticalAlign=bottom;endArrow=block;labelBackgroundColor=none;fontFamily=Verdana;fontSize=12;edgeStyle=elbowEdgeStyle;elbow=vertical;dashed=1;" parent="1" source="Hi4JXIE11A1KlNq3GbC6-204" edge="1">
          <mxGeometry relative="1" as="geometry">
            <mxPoint x="1520" y="442.70000000000005" as="sourcePoint" />
            <mxPoint x="1744.5" y="442.5" as="targetPoint" />
            <Array as="points" />
          </mxGeometry>
        </mxCell>
        <mxCell id="Hi4JXIE11A1KlNq3GbC6-262" value="return True" style="html=1;verticalAlign=bottom;endArrow=block;labelBackgroundColor=none;fontFamily=Verdana;fontSize=12;edgeStyle=elbowEdgeStyle;elbow=vertical;dashed=1;" parent="1" source="Hi4JXIE11A1KlNq3GbC6-205" edge="1">
          <mxGeometry relative="1" as="geometry">
            <mxPoint x="1520" y="532.7" as="sourcePoint" />
            <mxPoint x="1744.5" y="532.5" as="targetPoint" />
            <Array as="points" />
          </mxGeometry>
        </mxCell>
        <mxCell id="Hi4JXIE11A1KlNq3GbC6-263" value="ConsumeStamina()" style="html=1;verticalAlign=bottom;endArrow=block;labelBackgroundColor=none;fontFamily=Verdana;fontSize=12;edgeStyle=elbowEdgeStyle;elbow=vertical;" parent="1" edge="1">
          <mxGeometry x="0.0012" relative="1" as="geometry">
            <mxPoint x="1755" y="552.5799999999999" as="sourcePoint" />
            <mxPoint x="1910" y="553.5" as="targetPoint" />
            <mxPoint as="offset" />
          </mxGeometry>
        </mxCell>
        <mxCell id="_5beenOVeU4xuoAPnQf5-1" value="ลำดับอินพุตการพุ่งไม่ถูกต้อง" style="text;html=1;align=center;verticalAlign=middle;resizable=0;points=[];autosize=1;strokeColor=none;fillColor=none;fontSize=11;" parent="1" vertex="1">
          <mxGeometry x="1350" y="390" width="150" height="30" as="geometry" />
        </mxCell>
        <mxCell id="_5beenOVeU4xuoAPnQf5-3" value="ลำดับอินพุตท่าโจมตีพิเศษถูกต้อง" style="text;html=1;align=center;verticalAlign=middle;resizable=0;points=[];autosize=1;strokeColor=none;fillColor=none;labelBackgroundColor=default;" parent="1" vertex="1">
          <mxGeometry x="190" y="440" width="190" height="30" as="geometry" />
        </mxCell>
        <mxCell id="_5beenOVeU4xuoAPnQf5-4" value="ลำดับอินพุตการพุ่งถูกต้อง" style="text;html=1;align=center;verticalAlign=middle;resizable=0;points=[];autosize=1;strokeColor=none;fillColor=none;" parent="1" vertex="1">
          <mxGeometry x="1350" y="480" width="150" height="30" as="geometry" />
        </mxCell>
        <mxCell id="_5beenOVeU4xuoAPnQf5-5" value="alt" style="shape=umlFrame;whiteSpace=wrap;html=1;pointerEvents=0;" parent="1" vertex="1">
          <mxGeometry x="1610" y="570" width="430" height="150" as="geometry" />
        </mxCell>
        <mxCell id="_5beenOVeU4xuoAPnQf5-6" value="" style="line;strokeWidth=1;fillColor=none;align=left;verticalAlign=middle;spacingTop=-1;spacingLeft=3;spacingRight=3;rotatable=0;labelPosition=right;points=[];portConstraint=eastwest;strokeColor=inherit;dashed=1;" parent="1" vertex="1">
          <mxGeometry x="1350" y="375" width="689" height="20" as="geometry" />
        </mxCell>
        <mxCell id="_5beenOVeU4xuoAPnQf5-7" value="การเคลื่อนไหวปกติ" style="text;html=1;align=center;verticalAlign=middle;resizable=0;points=[];autosize=1;strokeColor=none;fillColor=none;" parent="1" vertex="1">
          <mxGeometry x="1420" y="250" width="120" height="30" as="geometry" />
        </mxCell>
        <mxCell id="_5beenOVeU4xuoAPnQf5-8" value="พลังงานไม่เพียงพอ" style="text;html=1;align=center;verticalAlign=middle;resizable=0;points=[];autosize=1;strokeColor=none;fillColor=none;" parent="1" vertex="1">
          <mxGeometry x="1610" y="600" width="120" height="30" as="geometry" />
        </mxCell>
        <mxCell id="_5beenOVeU4xuoAPnQf5-9" value="" style="shape=umlLifeline;perimeter=lifelinePerimeter;whiteSpace=wrap;html=1;container=1;dropTarget=0;collapsible=0;recursiveResize=0;outlineConnect=0;portConstraint=eastwest;newEdgeStyle={&quot;curved&quot;:0,&quot;rounded&quot;:0};participant=umlControl;" parent="1" vertex="1">
          <mxGeometry x="1895" y="140" width="40" height="580" as="geometry" />
        </mxCell>
        <mxCell id="_5beenOVeU4xuoAPnQf5-10" value="" style="html=1;points=[[0,0,0,0,5],[0,1,0,0,-5],[1,0,0,0,5],[1,1,0,0,-5]];perimeter=orthogonalPerimeter;outlineConnect=0;targetShapes=umlLifeline;portConstraint=eastwest;newEdgeStyle={&quot;curved&quot;:0,&quot;rounded&quot;:0};" parent="_5beenOVeU4xuoAPnQf5-9" vertex="1">
          <mxGeometry x="16" y="435" width="10" height="50" as="geometry" />
        </mxCell>
        <mxCell id="_5beenOVeU4xuoAPnQf5-11" value="" style="html=1;points=[[0,0,0,0,5],[0,1,0,0,-5],[1,0,0,0,5],[1,1,0,0,-5]];perimeter=orthogonalPerimeter;outlineConnect=0;targetShapes=umlLifeline;portConstraint=eastwest;newEdgeStyle={&quot;curved&quot;:0,&quot;rounded&quot;:0};" parent="_5beenOVeU4xuoAPnQf5-9" vertex="1">
          <mxGeometry x="17" y="400" width="10" height="20" as="geometry" />
        </mxCell>
        <mxCell id="_5beenOVeU4xuoAPnQf5-12" value="StatModule" style="text;html=1;align=center;verticalAlign=middle;whiteSpace=wrap;rounded=0;" parent="1" vertex="1">
          <mxGeometry x="1886" y="112.5" width="64" height="27.5" as="geometry" />
        </mxCell>
        <mxCell id="Hi4JXIE11A1KlNq3GbC6-246" value="" style="html=1;points=[[0,0,0,0,5],[0,1,0,0,-5],[1,0,0,0,5],[1,1,0,0,-5]];perimeter=orthogonalPerimeter;outlineConnect=0;targetShapes=umlLifeline;portConstraint=eastwest;newEdgeStyle={&quot;curved&quot;:0,&quot;rounded&quot;:0};" parent="1" vertex="1">
          <mxGeometry x="1910" y="652.5" width="10" height="50" as="geometry" />
        </mxCell>
        <mxCell id="_5beenOVeU4xuoAPnQf5-13" value="" style="line;strokeWidth=1;fillColor=none;align=left;verticalAlign=middle;spacingTop=-1;spacingLeft=3;spacingRight=3;rotatable=0;labelPosition=right;points=[];portConstraint=eastwest;strokeColor=inherit;dashed=1;" parent="1" vertex="1">
          <mxGeometry x="1612.5" y="632.5" width="427.5" height="20" as="geometry" />
        </mxCell>
        <mxCell id="_5beenOVeU4xuoAPnQf5-15" value="พลังงานเพียงพอ" style="text;html=1;align=center;verticalAlign=middle;resizable=0;points=[];autosize=1;strokeColor=none;fillColor=none;" parent="1" vertex="1">
          <mxGeometry x="1615" y="652.5" width="110" height="30" as="geometry" />
        </mxCell>
        <mxCell id="Hi4JXIE11A1KlNq3GbC6-202" value="" style="html=1;points=[[0,0,0,0,5],[0,1,0,0,-5],[1,0,0,0,5],[1,1,0,0,-5]];perimeter=orthogonalPerimeter;outlineConnect=0;targetShapes=umlLifeline;portConstraint=eastwest;newEdgeStyle={&quot;curved&quot;:0,&quot;rounded&quot;:0};" parent="1" vertex="1">
          <mxGeometry x="1415" y="290" width="10" height="60" as="geometry" />
        </mxCell>
        <mxCell id="_5beenOVeU4xuoAPnQf5-18" value="return True" style="html=1;verticalAlign=bottom;endArrow=block;labelBackgroundColor=none;fontFamily=Verdana;fontSize=12;edgeStyle=elbowEdgeStyle;elbow=vertical;dashed=1;" parent="1" target="_5beenOVeU4xuoAPnQf5-30" edge="1">
          <mxGeometry x="-0.6165" relative="1" as="geometry">
            <mxPoint x="375" y="1470.2037037037035" as="sourcePoint" />
            <mxPoint x="695" y="1470" as="targetPoint" />
            <Array as="points" />
            <mxPoint as="offset" />
          </mxGeometry>
        </mxCell>
        <mxCell id="_5beenOVeU4xuoAPnQf5-19" value="IsKeyHeld()" style="html=1;verticalAlign=bottom;endArrow=none;labelBackgroundColor=none;fontFamily=Verdana;fontSize=12;edgeStyle=elbowEdgeStyle;elbow=vertical;startArrow=block;startFill=1;endFill=0;" parent="1" edge="1">
          <mxGeometry x="0.5468" relative="1" as="geometry">
            <mxPoint x="375" y="1439.9985714285715" as="sourcePoint" />
            <mxPoint x="610" y="1439.9985714285715" as="targetPoint" />
            <Array as="points" />
            <mxPoint as="offset" />
          </mxGeometry>
        </mxCell>
        <mxCell id="_5beenOVeU4xuoAPnQf5-20" value="&lt;font style=&quot;font-size: 10px;&quot;&gt;RecieveInput()&lt;br&gt;&lt;/font&gt;" style="html=1;verticalAlign=bottom;endArrow=block;labelBackgroundColor=none;fontFamily=Verdana;fontSize=12;edgeStyle=elbowEdgeStyle;elbow=vertical;" parent="1" source="_5beenOVeU4xuoAPnQf5-21" target="_5beenOVeU4xuoAPnQf5-38" edge="1">
          <mxGeometry relative="1" as="geometry">
            <mxPoint x="275" y="1362.5" as="sourcePoint" />
            <mxPoint x="360" y="1362.5" as="targetPoint" />
            <Array as="points">
              <mxPoint x="360" y="1362.5" />
            </Array>
          </mxGeometry>
        </mxCell>
        <mxCell id="_5beenOVeU4xuoAPnQf5-21" value="" style="shape=umlLifeline;perimeter=lifelinePerimeter;whiteSpace=wrap;html=1;container=1;dropTarget=0;collapsible=0;recursiveResize=0;outlineConnect=0;portConstraint=eastwest;newEdgeStyle={&quot;curved&quot;:0,&quot;rounded&quot;:0};participant=umlActor;" parent="1" vertex="1">
          <mxGeometry x="240" y="1282.5" width="20" height="737.5" as="geometry" />
        </mxCell>
        <mxCell id="_5beenOVeU4xuoAPnQf5-22" value="" style="html=1;points=[[0,0,0,0,5],[0,1,0,0,-5],[1,0,0,0,5],[1,1,0,0,-5]];perimeter=orthogonalPerimeter;outlineConnect=0;targetShapes=umlLifeline;portConstraint=eastwest;newEdgeStyle={&quot;curved&quot;:0,&quot;rounded&quot;:0};" parent="_5beenOVeU4xuoAPnQf5-21" vertex="1">
          <mxGeometry x="5" y="60" width="10" height="30" as="geometry" />
        </mxCell>
        <mxCell id="_5beenOVeU4xuoAPnQf5-23" value="ผู้เล่น" style="text;html=1;align=center;verticalAlign=middle;whiteSpace=wrap;rounded=0;" parent="1" vertex="1">
          <mxGeometry x="220" y="1252.5" width="60" height="30" as="geometry" />
        </mxCell>
        <mxCell id="_5beenOVeU4xuoAPnQf5-24" value="" style="shape=umlLifeline;perimeter=lifelinePerimeter;whiteSpace=wrap;html=1;container=1;dropTarget=0;collapsible=0;recursiveResize=0;outlineConnect=0;portConstraint=eastwest;newEdgeStyle={&quot;curved&quot;:0,&quot;rounded&quot;:0};participant=umlControl;" parent="1" vertex="1">
          <mxGeometry x="495" y="1282.5" width="40" height="737.5" as="geometry" />
        </mxCell>
        <mxCell id="_5beenOVeU4xuoAPnQf5-25" value="" style="html=1;points=[[0,0,0,0,5],[0,1,0,0,-5],[1,0,0,0,5],[1,1,0,0,-5]];perimeter=orthogonalPerimeter;outlineConnect=0;targetShapes=umlLifeline;portConstraint=eastwest;newEdgeStyle={&quot;curved&quot;:0,&quot;rounded&quot;:0};" parent="_5beenOVeU4xuoAPnQf5-24" vertex="1">
          <mxGeometry x="15" y="90" width="10" height="30" as="geometry" />
        </mxCell>
        <mxCell id="_5beenOVeU4xuoAPnQf5-28" value="&lt;div&gt;&lt;span style=&quot;background-color: transparent; color: light-dark(rgb(0, 0, 0), rgb(255, 255, 255));&quot;&gt;InputBufferModule&lt;/span&gt;&lt;/div&gt;" style="text;html=1;align=center;verticalAlign=middle;whiteSpace=wrap;rounded=0;" parent="1" vertex="1">
          <mxGeometry x="485" y="1259" width="60" height="30" as="geometry" />
        </mxCell>
        <mxCell id="_5beenOVeU4xuoAPnQf5-29" value="" style="shape=umlLifeline;perimeter=lifelinePerimeter;whiteSpace=wrap;html=1;container=1;dropTarget=0;collapsible=0;recursiveResize=0;outlineConnect=0;portConstraint=eastwest;newEdgeStyle={&quot;curved&quot;:0,&quot;rounded&quot;:0};participant=umlControl;" parent="1" vertex="1">
          <mxGeometry x="595" y="1282.5" width="40" height="737.5" as="geometry" />
        </mxCell>
        <mxCell id="_5beenOVeU4xuoAPnQf5-30" value="" style="html=1;points=[[0,0,0,0,5],[0,1,0,0,-5],[1,0,0,0,5],[1,1,0,0,-5]];perimeter=orthogonalPerimeter;outlineConnect=0;targetShapes=umlLifeline;portConstraint=eastwest;newEdgeStyle={&quot;curved&quot;:0,&quot;rounded&quot;:0};" parent="_5beenOVeU4xuoAPnQf5-29" vertex="1">
          <mxGeometry x="15" y="150" width="10" height="50" as="geometry" />
        </mxCell>
        <mxCell id="_5beenOVeU4xuoAPnQf5-31" value="" style="html=1;points=[[0,0,0,0,5],[0,1,0,0,-5],[1,0,0,0,5],[1,1,0,0,-5]];perimeter=orthogonalPerimeter;outlineConnect=0;targetShapes=umlLifeline;portConstraint=eastwest;newEdgeStyle={&quot;curved&quot;:0,&quot;rounded&quot;:0};" parent="_5beenOVeU4xuoAPnQf5-29" vertex="1">
          <mxGeometry x="15" y="210" width="10" height="30" as="geometry" />
        </mxCell>
        <mxCell id="_5beenOVeU4xuoAPnQf5-81" value="" style="html=1;points=[[0,0,0,0,5],[0,1,0,0,-5],[1,0,0,0,5],[1,1,0,0,-5]];perimeter=orthogonalPerimeter;outlineConnect=0;targetShapes=umlLifeline;portConstraint=eastwest;newEdgeStyle={&quot;curved&quot;:0,&quot;rounded&quot;:0};" parent="_5beenOVeU4xuoAPnQf5-29" vertex="1">
          <mxGeometry x="15" y="257.5" width="10" height="42.5" as="geometry" />
        </mxCell>
        <mxCell id="_5beenOVeU4xuoAPnQf5-96" style="edgeStyle=orthogonalEdgeStyle;rounded=0;orthogonalLoop=1;jettySize=auto;html=1;curved=0;" parent="_5beenOVeU4xuoAPnQf5-29" edge="1">
          <mxGeometry relative="1" as="geometry">
            <mxPoint x="25" y="278.75" as="sourcePoint" />
            <mxPoint x="25" y="298.75" as="targetPoint" />
            <Array as="points">
              <mxPoint x="45" y="288" />
            </Array>
          </mxGeometry>
        </mxCell>
        <mxCell id="_5beenOVeU4xuoAPnQf5-104" value="IsBlocking False" style="edgeLabel;html=1;align=center;verticalAlign=middle;resizable=0;points=[];" parent="_5beenOVeU4xuoAPnQf5-96" vertex="1" connectable="0">
          <mxGeometry x="0.229" y="2" relative="1" as="geometry">
            <mxPoint x="40" y="-3" as="offset" />
          </mxGeometry>
        </mxCell>
        <mxCell id="_5beenOVeU4xuoAPnQf5-36" value="ฺBlockModule" style="text;html=1;align=center;verticalAlign=middle;whiteSpace=wrap;rounded=0;" parent="1" vertex="1">
          <mxGeometry x="586" y="1259" width="60" height="30" as="geometry" />
        </mxCell>
        <mxCell id="_5beenOVeU4xuoAPnQf5-37" value="" style="shape=umlLifeline;perimeter=lifelinePerimeter;whiteSpace=wrap;html=1;container=1;dropTarget=0;collapsible=0;recursiveResize=0;outlineConnect=0;portConstraint=eastwest;newEdgeStyle={&quot;curved&quot;:0,&quot;rounded&quot;:0};participant=umlControl;" parent="1" vertex="1">
          <mxGeometry x="350" y="1282.5" width="40" height="737.5" as="geometry" />
        </mxCell>
        <mxCell id="_5beenOVeU4xuoAPnQf5-38" value="" style="html=1;points=[[0,0,0,0,5],[0,1,0,0,-5],[1,0,0,0,5],[1,1,0,0,-5]];perimeter=orthogonalPerimeter;outlineConnect=0;targetShapes=umlLifeline;portConstraint=eastwest;newEdgeStyle={&quot;curved&quot;:0,&quot;rounded&quot;:0};" parent="_5beenOVeU4xuoAPnQf5-37" vertex="1">
          <mxGeometry x="15" y="80" width="10" height="30" as="geometry" />
        </mxCell>
        <mxCell id="_5beenOVeU4xuoAPnQf5-39" value="&lt;font style=&quot;font-size: 11px;&quot;&gt;HandleBuffering()&lt;/font&gt;" style="html=1;verticalAlign=bottom;endArrow=block;labelBackgroundColor=none;fontFamily=Verdana;fontSize=12;edgeStyle=elbowEdgeStyle;elbow=vertical;" parent="1" source="_5beenOVeU4xuoAPnQf5-38" edge="1">
          <mxGeometry relative="1" as="geometry">
            <mxPoint x="395" y="1372.5" as="sourcePoint" />
            <mxPoint x="510" y="1372.5" as="targetPoint" />
            <Array as="points">
              <mxPoint x="505" y="1372.5" />
            </Array>
          </mxGeometry>
        </mxCell>
        <mxCell id="_5beenOVeU4xuoAPnQf5-40" value="&lt;br&gt;PlayerInputModule" style="text;html=1;align=center;verticalAlign=middle;whiteSpace=wrap;rounded=0;" parent="1" vertex="1">
          <mxGeometry x="340" y="1252.5" width="60" height="30" as="geometry" />
        </mxCell>
        <mxCell id="_5beenOVeU4xuoAPnQf5-54" value="alt" style="shape=umlFrame;whiteSpace=wrap;html=1;pointerEvents=0;" parent="1" vertex="1">
          <mxGeometry x="440" y="1485" width="460" height="535" as="geometry" />
        </mxCell>
        <mxCell id="_5beenOVeU4xuoAPnQf5-57" value="พลังงานไม่เพียงพอ" style="text;html=1;align=center;verticalAlign=middle;resizable=0;points=[];autosize=1;strokeColor=none;fillColor=none;labelBackgroundColor=default;" parent="1" vertex="1">
          <mxGeometry x="430" y="1510" width="120" height="30" as="geometry" />
        </mxCell>
        <mxCell id="_5beenOVeU4xuoAPnQf5-58" value="" style="shape=umlLifeline;perimeter=lifelinePerimeter;whiteSpace=wrap;html=1;container=1;dropTarget=0;collapsible=0;recursiveResize=0;outlineConnect=0;portConstraint=eastwest;newEdgeStyle={&quot;curved&quot;:0,&quot;rounded&quot;:0};participant=umlControl;" parent="1" vertex="1">
          <mxGeometry x="725" y="1280" width="40" height="740" as="geometry" />
        </mxCell>
        <mxCell id="_5beenOVeU4xuoAPnQf5-80" value="" style="html=1;points=[[0,0,0,0,5],[0,1,0,0,-5],[1,0,0,0,5],[1,1,0,0,-5]];perimeter=orthogonalPerimeter;outlineConnect=0;targetShapes=umlLifeline;portConstraint=eastwest;newEdgeStyle={&quot;curved&quot;:0,&quot;rounded&quot;:0};" parent="_5beenOVeU4xuoAPnQf5-58" vertex="1">
          <mxGeometry x="16" y="220" width="10" height="60" as="geometry" />
        </mxCell>
        <mxCell id="_5beenOVeU4xuoAPnQf5-90" value="" style="html=1;points=[[0,0,0,0,5],[0,1,0,0,-5],[1,0,0,0,5],[1,1,0,0,-5]];perimeter=orthogonalPerimeter;outlineConnect=0;targetShapes=umlLifeline;portConstraint=eastwest;newEdgeStyle={&quot;curved&quot;:0,&quot;rounded&quot;:0};" parent="_5beenOVeU4xuoAPnQf5-58" vertex="1">
          <mxGeometry x="-115" y="390" width="10" height="50" as="geometry" />
        </mxCell>
        <mxCell id="_5beenOVeU4xuoAPnQf5-91" value="" style="html=1;points=[[0,0,0,0,5],[0,1,0,0,-5],[1,0,0,0,5],[1,1,0,0,-5]];perimeter=orthogonalPerimeter;outlineConnect=0;targetShapes=umlLifeline;portConstraint=eastwest;newEdgeStyle={&quot;curved&quot;:0,&quot;rounded&quot;:0};" parent="_5beenOVeU4xuoAPnQf5-58" vertex="1">
          <mxGeometry x="16" y="350" width="10" height="60" as="geometry" />
        </mxCell>
        <mxCell id="_5beenOVeU4xuoAPnQf5-92" style="edgeStyle=orthogonalEdgeStyle;rounded=0;orthogonalLoop=1;jettySize=auto;html=1;curved=0;" parent="_5beenOVeU4xuoAPnQf5-58" target="_5beenOVeU4xuoAPnQf5-91" edge="1">
          <mxGeometry relative="1" as="geometry">
            <mxPoint x="-105" y="360.00000000000045" as="sourcePoint" />
            <Array as="points">
              <mxPoint x="-70" y="360" />
              <mxPoint x="-70" y="360" />
            </Array>
          </mxGeometry>
        </mxCell>
        <mxCell id="_5beenOVeU4xuoAPnQf5-93" value="&lt;span style=&quot;font-family: Verdana; font-size: 12px;&quot;&gt;ConsumeStamina()&lt;/span&gt;" style="edgeLabel;html=1;align=center;verticalAlign=middle;resizable=0;points=[];labelBackgroundColor=none;" parent="_5beenOVeU4xuoAPnQf5-92" vertex="1" connectable="0">
          <mxGeometry x="-0.037" y="1" relative="1" as="geometry">
            <mxPoint x="1" y="-9" as="offset" />
          </mxGeometry>
        </mxCell>
        <mxCell id="_5beenOVeU4xuoAPnQf5-61" value="StatModule" style="text;html=1;align=center;verticalAlign=middle;whiteSpace=wrap;rounded=0;" parent="1" vertex="1">
          <mxGeometry x="715" y="1259" width="60" height="30" as="geometry" />
        </mxCell>
        <mxCell id="_5beenOVeU4xuoAPnQf5-65" value="" style="html=1;points=[[0,0,0,0,5],[0,1,0,0,-5],[1,0,0,0,5],[1,1,0,0,-5]];perimeter=orthogonalPerimeter;outlineConnect=0;targetShapes=umlLifeline;portConstraint=eastwest;newEdgeStyle={&quot;curved&quot;:0,&quot;rounded&quot;:0};" parent="1" vertex="1">
          <mxGeometry x="365" y="1430" width="10" height="60" as="geometry" />
        </mxCell>
        <mxCell id="_5beenOVeU4xuoAPnQf5-66" value="" style="shape=umlLifeline;perimeter=lifelinePerimeter;whiteSpace=wrap;html=1;container=1;dropTarget=0;collapsible=0;recursiveResize=0;outlineConnect=0;portConstraint=eastwest;newEdgeStyle={&quot;curved&quot;:0,&quot;rounded&quot;:0};participant=umlControl;" parent="1" vertex="1">
          <mxGeometry x="844" y="1280" width="40" height="740" as="geometry" />
        </mxCell>
        <mxCell id="_5beenOVeU4xuoAPnQf5-111" style="edgeStyle=orthogonalEdgeStyle;rounded=0;orthogonalLoop=1;jettySize=auto;html=1;curved=0;dashed=1;" parent="_5beenOVeU4xuoAPnQf5-66" source="_5beenOVeU4xuoAPnQf5-107" target="_5beenOVeU4xuoAPnQf5-110" edge="1">
          <mxGeometry relative="1" as="geometry">
            <Array as="points">
              <mxPoint x="-164" y="494" />
              <mxPoint x="-164" y="494" />
            </Array>
          </mxGeometry>
        </mxCell>
        <mxCell id="_5beenOVeU4xuoAPnQf5-112" value="True" style="edgeLabel;html=1;align=center;verticalAlign=middle;resizable=0;points=[];" parent="_5beenOVeU4xuoAPnQf5-111" vertex="1" connectable="0">
          <mxGeometry x="-0.0506" y="3" relative="1" as="geometry">
            <mxPoint x="7" y="-5" as="offset" />
          </mxGeometry>
        </mxCell>
        <mxCell id="_5beenOVeU4xuoAPnQf5-107" value="" style="html=1;points=[[0,0,0,0,5],[0,1,0,0,-5],[1,0,0,0,5],[1,1,0,0,-5]];perimeter=orthogonalPerimeter;outlineConnect=0;targetShapes=umlLifeline;portConstraint=eastwest;newEdgeStyle={&quot;curved&quot;:0,&quot;rounded&quot;:0};" parent="_5beenOVeU4xuoAPnQf5-66" vertex="1">
          <mxGeometry x="-234" y="470" width="10" height="32.5" as="geometry" />
        </mxCell>
        <mxCell id="_5beenOVeU4xuoAPnQf5-108" style="edgeStyle=orthogonalEdgeStyle;rounded=0;orthogonalLoop=1;jettySize=auto;html=1;curved=0;" parent="_5beenOVeU4xuoAPnQf5-66" source="_5beenOVeU4xuoAPnQf5-106" target="_5beenOVeU4xuoAPnQf5-107" edge="1">
          <mxGeometry relative="1" as="geometry">
            <Array as="points">
              <mxPoint x="-164" y="470" />
              <mxPoint x="-164" y="470" />
            </Array>
          </mxGeometry>
        </mxCell>
        <mxCell id="_5beenOVeU4xuoAPnQf5-109" value="IsBlocking" style="edgeLabel;html=1;align=center;verticalAlign=middle;resizable=0;points=[];" parent="_5beenOVeU4xuoAPnQf5-108" vertex="1" connectable="0">
          <mxGeometry x="-0.0975" y="2" relative="1" as="geometry">
            <mxPoint x="-6" y="-7" as="offset" />
          </mxGeometry>
        </mxCell>
        <mxCell id="_5beenOVeU4xuoAPnQf5-106" value="" style="html=1;points=[[0,0,0,0,5],[0,1,0,0,-5],[1,0,0,0,5],[1,1,0,0,-5]];perimeter=orthogonalPerimeter;outlineConnect=0;targetShapes=umlLifeline;portConstraint=eastwest;newEdgeStyle={&quot;curved&quot;:0,&quot;rounded&quot;:0};" parent="_5beenOVeU4xuoAPnQf5-66" vertex="1">
          <mxGeometry x="16" y="450" width="10" height="30" as="geometry" />
        </mxCell>
        <mxCell id="_5beenOVeU4xuoAPnQf5-110" value="" style="html=1;points=[[0,0,0,0,5],[0,1,0,0,-5],[1,0,0,0,5],[1,1,0,0,-5]];perimeter=orthogonalPerimeter;outlineConnect=0;targetShapes=umlLifeline;portConstraint=eastwest;newEdgeStyle={&quot;curved&quot;:0,&quot;rounded&quot;:0};" parent="_5beenOVeU4xuoAPnQf5-66" vertex="1">
          <mxGeometry x="16" y="490" width="10" height="40" as="geometry" />
        </mxCell>
        <mxCell id="_5beenOVeU4xuoAPnQf5-120" value="" style="html=1;points=[[0,0,0,0,5],[0,1,0,0,-5],[1,0,0,0,5],[1,1,0,0,-5]];perimeter=orthogonalPerimeter;outlineConnect=0;targetShapes=umlLifeline;portConstraint=eastwest;newEdgeStyle={&quot;curved&quot;:0,&quot;rounded&quot;:0};" parent="_5beenOVeU4xuoAPnQf5-66" vertex="1">
          <mxGeometry x="16" y="540" width="10" height="30" as="geometry" />
        </mxCell>
        <mxCell id="_5beenOVeU4xuoAPnQf5-79" value="" style="line;strokeWidth=1;fillColor=none;align=left;verticalAlign=middle;spacingTop=-1;spacingLeft=3;spacingRight=3;rotatable=0;labelPosition=right;points=[];portConstraint=eastwest;strokeColor=inherit;dashed=1;" parent="1" vertex="1">
          <mxGeometry x="442" y="1585" width="458" height="20" as="geometry" />
        </mxCell>
        <mxCell id="_5beenOVeU4xuoAPnQf5-82" style="edgeStyle=orthogonalEdgeStyle;rounded=0;orthogonalLoop=1;jettySize=auto;html=1;curved=0;" parent="1" source="_5beenOVeU4xuoAPnQf5-31" target="_5beenOVeU4xuoAPnQf5-80" edge="1">
          <mxGeometry relative="1" as="geometry">
            <Array as="points">
              <mxPoint x="655" y="1510" />
              <mxPoint x="655" y="1510" />
            </Array>
          </mxGeometry>
        </mxCell>
        <mxCell id="_5beenOVeU4xuoAPnQf5-86" value="&lt;span style=&quot;font-family: Verdana; font-size: 12px;&quot;&gt;ConsumeStamina()&lt;/span&gt;" style="edgeLabel;html=1;align=center;verticalAlign=middle;resizable=0;points=[];labelBackgroundColor=none;" parent="_5beenOVeU4xuoAPnQf5-82" vertex="1" connectable="0">
          <mxGeometry x="-0.037" y="1" relative="1" as="geometry">
            <mxPoint x="1" y="-9" as="offset" />
          </mxGeometry>
        </mxCell>
        <mxCell id="_5beenOVeU4xuoAPnQf5-83" style="edgeStyle=orthogonalEdgeStyle;rounded=0;orthogonalLoop=1;jettySize=auto;html=1;curved=0;dashed=1;" parent="1" edge="1">
          <mxGeometry relative="1" as="geometry">
            <mxPoint x="740" y="1550.0000000000005" as="sourcePoint" />
            <mxPoint x="619" y="1550.0000000000005" as="targetPoint" />
            <Array as="points">
              <mxPoint x="714" y="1550" />
              <mxPoint x="714" y="1550" />
            </Array>
          </mxGeometry>
        </mxCell>
        <mxCell id="_5beenOVeU4xuoAPnQf5-85" value="&lt;span style=&quot;font-family: Verdana; font-size: 12px;&quot;&gt;return False&lt;/span&gt;" style="edgeLabel;html=1;align=center;verticalAlign=middle;resizable=0;points=[];labelBackgroundColor=none;" parent="_5beenOVeU4xuoAPnQf5-83" vertex="1" connectable="0">
          <mxGeometry x="-0.0061" relative="1" as="geometry">
            <mxPoint x="-2" y="-10" as="offset" />
          </mxGeometry>
        </mxCell>
        <mxCell id="_5beenOVeU4xuoAPnQf5-87" value="Hurtbox" style="text;html=1;align=center;verticalAlign=middle;whiteSpace=wrap;rounded=0;" parent="1" vertex="1">
          <mxGeometry x="834" y="1259" width="60" height="30" as="geometry" />
        </mxCell>
        <mxCell id="_5beenOVeU4xuoAPnQf5-88" value="พลังงานเพียงพอ" style="text;html=1;align=center;verticalAlign=middle;resizable=0;points=[];autosize=1;strokeColor=none;fillColor=none;labelBackgroundColor=default;" parent="1" vertex="1">
          <mxGeometry x="435" y="1600" width="110" height="30" as="geometry" />
        </mxCell>
        <mxCell id="_5beenOVeU4xuoAPnQf5-89" value="" style="html=1;points=[[0,0,0,0,5],[0,1,0,0,-5],[1,0,0,0,5],[1,1,0,0,-5]];perimeter=orthogonalPerimeter;outlineConnect=0;targetShapes=umlLifeline;portConstraint=eastwest;newEdgeStyle={&quot;curved&quot;:0,&quot;rounded&quot;:0};" parent="1" vertex="1">
          <mxGeometry x="610" y="1620" width="10" height="30" as="geometry" />
        </mxCell>
        <mxCell id="_5beenOVeU4xuoAPnQf5-99" style="edgeStyle=orthogonalEdgeStyle;rounded=0;orthogonalLoop=1;jettySize=auto;html=1;curved=0;entryX=1;entryY=1;entryDx=0;entryDy=-5;entryPerimeter=0;" parent="1" target="_5beenOVeU4xuoAPnQf5-90" edge="1">
          <mxGeometry relative="1" as="geometry">
            <mxPoint x="620" y="1690" as="sourcePoint" />
            <mxPoint x="620" y="1710" as="targetPoint" />
            <Array as="points">
              <mxPoint x="620" y="1700" />
              <mxPoint x="640" y="1700" />
              <mxPoint x="640" y="1715" />
            </Array>
          </mxGeometry>
        </mxCell>
        <mxCell id="_5beenOVeU4xuoAPnQf5-103" value="IsBlocking True" style="edgeLabel;html=1;align=center;verticalAlign=middle;resizable=0;points=[];" parent="_5beenOVeU4xuoAPnQf5-99" vertex="1" connectable="0">
          <mxGeometry x="0.1516" y="-1" relative="1" as="geometry">
            <mxPoint x="45" as="offset" />
          </mxGeometry>
        </mxCell>
        <mxCell id="_5beenOVeU4xuoAPnQf5-94" style="edgeStyle=orthogonalEdgeStyle;rounded=0;orthogonalLoop=1;jettySize=auto;html=1;curved=0;dashed=1;" parent="1" edge="1">
          <mxGeometry relative="1" as="geometry">
            <mxPoint x="741" y="1680.0000000000005" as="sourcePoint" />
            <mxPoint x="620" y="1680.0000000000005" as="targetPoint" />
            <Array as="points">
              <mxPoint x="680" y="1680" />
              <mxPoint x="680" y="1680" />
            </Array>
          </mxGeometry>
        </mxCell>
        <mxCell id="_5beenOVeU4xuoAPnQf5-95" value="&lt;span style=&quot;font-family: Verdana; font-size: 12px;&quot;&gt;return true&lt;/span&gt;" style="edgeLabel;html=1;align=center;verticalAlign=middle;resizable=0;points=[];labelBackgroundColor=none;" parent="_5beenOVeU4xuoAPnQf5-94" vertex="1" connectable="0">
          <mxGeometry x="-0.0061" relative="1" as="geometry">
            <mxPoint x="-2" y="-10" as="offset" />
          </mxGeometry>
        </mxCell>
        <mxCell id="_5beenOVeU4xuoAPnQf5-105" value="alt" style="shape=umlFrame;whiteSpace=wrap;html=1;pointerEvents=0;" parent="1" vertex="1">
          <mxGeometry x="480" y="1730" width="420" height="290" as="geometry" />
        </mxCell>
        <mxCell id="_5beenOVeU4xuoAPnQf5-121" style="edgeStyle=orthogonalEdgeStyle;rounded=0;orthogonalLoop=1;jettySize=auto;html=1;curved=0;dashed=1;" parent="1" source="_5beenOVeU4xuoAPnQf5-113" target="_5beenOVeU4xuoAPnQf5-120" edge="1">
          <mxGeometry relative="1" as="geometry">
            <Array as="points">
              <mxPoint x="800" y="1830" />
              <mxPoint x="800" y="1830" />
            </Array>
          </mxGeometry>
        </mxCell>
        <mxCell id="_5beenOVeU4xuoAPnQf5-122" value="False" style="edgeLabel;html=1;align=center;verticalAlign=middle;resizable=0;points=[];" parent="_5beenOVeU4xuoAPnQf5-121" vertex="1" connectable="0">
          <mxGeometry x="0.0235" y="-3" relative="1" as="geometry">
            <mxPoint x="1" y="-13" as="offset" />
          </mxGeometry>
        </mxCell>
        <mxCell id="_5beenOVeU4xuoAPnQf5-113" value="" style="html=1;points=[[0,0,0,0,5],[0,1,0,0,-5],[1,0,0,0,5],[1,1,0,0,-5]];perimeter=orthogonalPerimeter;outlineConnect=0;targetShapes=umlLifeline;portConstraint=eastwest;newEdgeStyle={&quot;curved&quot;:0,&quot;rounded&quot;:0};" parent="1" vertex="1">
          <mxGeometry x="610" y="1800" width="10" height="40" as="geometry" />
        </mxCell>
        <mxCell id="_5beenOVeU4xuoAPnQf5-114" value="ป้องกัน" style="text;html=1;align=center;verticalAlign=middle;resizable=0;points=[];autosize=1;strokeColor=none;fillColor=none;labelBackgroundColor=default;" parent="1" vertex="1">
          <mxGeometry x="480" y="1760" width="60" height="30" as="geometry" />
        </mxCell>
        <mxCell id="_5beenOVeU4xuoAPnQf5-116" value="ปัดป้อง" style="text;html=1;align=center;verticalAlign=middle;resizable=0;points=[];autosize=1;strokeColor=none;fillColor=none;labelBackgroundColor=default;" parent="1" vertex="1">
          <mxGeometry x="480" y="1890" width="60" height="30" as="geometry" />
        </mxCell>
        <mxCell id="_5beenOVeU4xuoAPnQf5-118" style="edgeStyle=orthogonalEdgeStyle;rounded=0;orthogonalLoop=1;jettySize=auto;html=1;curved=0;" parent="1" source="_5beenOVeU4xuoAPnQf5-110" target="_5beenOVeU4xuoAPnQf5-113" edge="1">
          <mxGeometry relative="1" as="geometry">
            <Array as="points">
              <mxPoint x="800" y="1804" />
              <mxPoint x="800" y="1804" />
            </Array>
          </mxGeometry>
        </mxCell>
        <mxCell id="_5beenOVeU4xuoAPnQf5-119" value="IsPerfectBlock()" style="edgeLabel;html=1;align=center;verticalAlign=middle;resizable=0;points=[];" parent="_5beenOVeU4xuoAPnQf5-118" vertex="1" connectable="0">
          <mxGeometry x="0.1123" relative="1" as="geometry">
            <mxPoint x="20" y="-11" as="offset" />
          </mxGeometry>
        </mxCell>
        <mxCell id="_5beenOVeU4xuoAPnQf5-125" style="edgeStyle=orthogonalEdgeStyle;rounded=0;orthogonalLoop=1;jettySize=auto;html=1;curved=0;dashed=1;" parent="1" source="_5beenOVeU4xuoAPnQf5-127" target="_5beenOVeU4xuoAPnQf5-131" edge="1">
          <mxGeometry relative="1" as="geometry">
            <Array as="points">
              <mxPoint x="680" y="1924" />
              <mxPoint x="680" y="1924" />
            </Array>
          </mxGeometry>
        </mxCell>
        <mxCell id="_5beenOVeU4xuoAPnQf5-126" value="True" style="edgeLabel;html=1;align=center;verticalAlign=middle;resizable=0;points=[];" parent="_5beenOVeU4xuoAPnQf5-125" vertex="1" connectable="0">
          <mxGeometry x="-0.0506" y="3" relative="1" as="geometry">
            <mxPoint x="7" y="-5" as="offset" />
          </mxGeometry>
        </mxCell>
        <mxCell id="_5beenOVeU4xuoAPnQf5-127" value="" style="html=1;points=[[0,0,0,0,5],[0,1,0,0,-5],[1,0,0,0,5],[1,1,0,0,-5]];perimeter=orthogonalPerimeter;outlineConnect=0;targetShapes=umlLifeline;portConstraint=eastwest;newEdgeStyle={&quot;curved&quot;:0,&quot;rounded&quot;:0};" parent="1" vertex="1">
          <mxGeometry x="610" y="1900" width="10" height="32.5" as="geometry" />
        </mxCell>
        <mxCell id="_5beenOVeU4xuoAPnQf5-128" style="edgeStyle=orthogonalEdgeStyle;rounded=0;orthogonalLoop=1;jettySize=auto;html=1;curved=0;" parent="1" source="_5beenOVeU4xuoAPnQf5-130" target="_5beenOVeU4xuoAPnQf5-127" edge="1">
          <mxGeometry relative="1" as="geometry">
            <Array as="points">
              <mxPoint x="680" y="1900" />
              <mxPoint x="680" y="1900" />
            </Array>
          </mxGeometry>
        </mxCell>
        <mxCell id="_5beenOVeU4xuoAPnQf5-129" value="IsBlocking" style="edgeLabel;html=1;align=center;verticalAlign=middle;resizable=0;points=[];" parent="_5beenOVeU4xuoAPnQf5-128" vertex="1" connectable="0">
          <mxGeometry x="-0.0975" y="2" relative="1" as="geometry">
            <mxPoint x="-6" y="-7" as="offset" />
          </mxGeometry>
        </mxCell>
        <mxCell id="_5beenOVeU4xuoAPnQf5-130" value="" style="html=1;points=[[0,0,0,0,5],[0,1,0,0,-5],[1,0,0,0,5],[1,1,0,0,-5]];perimeter=orthogonalPerimeter;outlineConnect=0;targetShapes=umlLifeline;portConstraint=eastwest;newEdgeStyle={&quot;curved&quot;:0,&quot;rounded&quot;:0};" parent="1" vertex="1">
          <mxGeometry x="860" y="1880" width="10" height="30" as="geometry" />
        </mxCell>
        <mxCell id="_5beenOVeU4xuoAPnQf5-131" value="" style="html=1;points=[[0,0,0,0,5],[0,1,0,0,-5],[1,0,0,0,5],[1,1,0,0,-5]];perimeter=orthogonalPerimeter;outlineConnect=0;targetShapes=umlLifeline;portConstraint=eastwest;newEdgeStyle={&quot;curved&quot;:0,&quot;rounded&quot;:0};" parent="1" vertex="1">
          <mxGeometry x="860" y="1920" width="10" height="40" as="geometry" />
        </mxCell>
        <mxCell id="_5beenOVeU4xuoAPnQf5-132" value="" style="html=1;points=[[0,0,0,0,5],[0,1,0,0,-5],[1,0,0,0,5],[1,1,0,0,-5]];perimeter=orthogonalPerimeter;outlineConnect=0;targetShapes=umlLifeline;portConstraint=eastwest;newEdgeStyle={&quot;curved&quot;:0,&quot;rounded&quot;:0};" parent="1" vertex="1">
          <mxGeometry x="860" y="1970" width="10" height="30" as="geometry" />
        </mxCell>
        <mxCell id="_5beenOVeU4xuoAPnQf5-133" style="edgeStyle=orthogonalEdgeStyle;rounded=0;orthogonalLoop=1;jettySize=auto;html=1;curved=0;dashed=1;" parent="1" source="_5beenOVeU4xuoAPnQf5-135" target="_5beenOVeU4xuoAPnQf5-132" edge="1">
          <mxGeometry relative="1" as="geometry">
            <Array as="points">
              <mxPoint x="800" y="1980" />
              <mxPoint x="800" y="1980" />
            </Array>
          </mxGeometry>
        </mxCell>
        <mxCell id="_5beenOVeU4xuoAPnQf5-134" value="True" style="edgeLabel;html=1;align=center;verticalAlign=middle;resizable=0;points=[];" parent="_5beenOVeU4xuoAPnQf5-133" vertex="1" connectable="0">
          <mxGeometry x="0.0235" y="-3" relative="1" as="geometry">
            <mxPoint x="1" y="-13" as="offset" />
          </mxGeometry>
        </mxCell>
        <mxCell id="_5beenOVeU4xuoAPnQf5-135" value="" style="html=1;points=[[0,0,0,0,5],[0,1,0,0,-5],[1,0,0,0,5],[1,1,0,0,-5]];perimeter=orthogonalPerimeter;outlineConnect=0;targetShapes=umlLifeline;portConstraint=eastwest;newEdgeStyle={&quot;curved&quot;:0,&quot;rounded&quot;:0};" parent="1" vertex="1">
          <mxGeometry x="610" y="1950" width="10" height="40" as="geometry" />
        </mxCell>
        <mxCell id="_5beenOVeU4xuoAPnQf5-136" style="edgeStyle=orthogonalEdgeStyle;rounded=0;orthogonalLoop=1;jettySize=auto;html=1;curved=0;" parent="1" source="_5beenOVeU4xuoAPnQf5-131" target="_5beenOVeU4xuoAPnQf5-135" edge="1">
          <mxGeometry relative="1" as="geometry">
            <Array as="points">
              <mxPoint x="800" y="1954" />
              <mxPoint x="800" y="1954" />
            </Array>
          </mxGeometry>
        </mxCell>
        <mxCell id="_5beenOVeU4xuoAPnQf5-137" value="IsPerfectBlock()" style="edgeLabel;html=1;align=center;verticalAlign=middle;resizable=0;points=[];" parent="_5beenOVeU4xuoAPnQf5-136" vertex="1" connectable="0">
          <mxGeometry x="0.1123" relative="1" as="geometry">
            <mxPoint x="20" y="-11" as="offset" />
          </mxGeometry>
        </mxCell>
        <mxCell id="_5beenOVeU4xuoAPnQf5-138" value="" style="line;strokeWidth=1;fillColor=none;align=left;verticalAlign=middle;spacingTop=-1;spacingLeft=3;spacingRight=3;rotatable=0;labelPosition=right;points=[];portConstraint=eastwest;strokeColor=inherit;dashed=1;" parent="1" vertex="1">
          <mxGeometry x="480" y="1860" width="420" height="20" as="geometry" />
        </mxCell>
        <mxCell id="aaLv28ytoih7o6T027u6-1" value="" style="shape=umlLifeline;perimeter=lifelinePerimeter;whiteSpace=wrap;html=1;container=1;dropTarget=0;collapsible=0;recursiveResize=0;outlineConnect=0;portConstraint=eastwest;newEdgeStyle={&quot;curved&quot;:0,&quot;rounded&quot;:0};participant=umlControl;" parent="1" vertex="1">
          <mxGeometry x="804" y="98" width="40" height="820" as="geometry" />
        </mxCell>
        <mxCell id="aaLv28ytoih7o6T027u6-2" value="" style="html=1;points=[[0,0,0,0,5],[0,1,0,0,-5],[1,0,0,0,5],[1,1,0,0,-5]];perimeter=orthogonalPerimeter;outlineConnect=0;targetShapes=umlLifeline;portConstraint=eastwest;newEdgeStyle={&quot;curved&quot;:0,&quot;rounded&quot;:0};" parent="aaLv28ytoih7o6T027u6-1" vertex="1">
          <mxGeometry x="15" y="590" width="10" height="40" as="geometry" />
        </mxCell>
        <mxCell id="aaLv28ytoih7o6T027u6-18" value="" style="html=1;points=[[0,0,0,0,5],[0,1,0,0,-5],[1,0,0,0,5],[1,1,0,0,-5]];perimeter=orthogonalPerimeter;outlineConnect=0;targetShapes=umlLifeline;portConstraint=eastwest;newEdgeStyle={&quot;curved&quot;:0,&quot;rounded&quot;:0};" parent="aaLv28ytoih7o6T027u6-1" vertex="1">
          <mxGeometry x="15" y="722" width="10" height="40" as="geometry" />
        </mxCell>
        <mxCell id="aaLv28ytoih7o6T027u6-3" value="Fighter1&lt;br&gt;AnimationEvent" style="text;html=1;align=center;verticalAlign=middle;whiteSpace=wrap;rounded=0;fontSize=11;" parent="1" vertex="1">
          <mxGeometry x="794" y="68" width="60" height="30" as="geometry" />
        </mxCell>
        <mxCell id="aaLv28ytoih7o6T027u6-9" style="edgeStyle=orthogonalEdgeStyle;rounded=0;orthogonalLoop=1;jettySize=auto;html=1;curved=0;" parent="1" edge="1">
          <mxGeometry relative="1" as="geometry">
            <Array as="points">
              <mxPoint x="671" y="740" />
              <mxPoint x="671" y="740" />
            </Array>
            <mxPoint x="586" y="740" as="sourcePoint" />
            <mxPoint x="886" y="740" as="targetPoint" />
          </mxGeometry>
        </mxCell>
        <mxCell id="aaLv28ytoih7o6T027u6-10" value="SetActive()" style="edgeLabel;html=1;align=center;verticalAlign=middle;resizable=0;points=[];" parent="aaLv28ytoih7o6T027u6-9" vertex="1" connectable="0">
          <mxGeometry x="-0.0545" y="-2" relative="1" as="geometry">
            <mxPoint x="-54" y="-11" as="offset" />
          </mxGeometry>
        </mxCell>
        <mxCell id="aaLv28ytoih7o6T027u6-11" style="edgeStyle=orthogonalEdgeStyle;rounded=0;orthogonalLoop=1;jettySize=auto;html=1;curved=0;" parent="1" edge="1">
          <mxGeometry relative="1" as="geometry">
            <Array as="points">
              <mxPoint x="669" y="885" />
              <mxPoint x="669" y="885" />
            </Array>
            <mxPoint x="584" y="885" as="sourcePoint" />
            <mxPoint x="884" y="885" as="targetPoint" />
          </mxGeometry>
        </mxCell>
        <mxCell id="aaLv28ytoih7o6T027u6-12" value="SetActive()" style="edgeLabel;html=1;align=center;verticalAlign=middle;resizable=0;points=[];" parent="aaLv28ytoih7o6T027u6-11" vertex="1" connectable="0">
          <mxGeometry x="-0.0545" y="-2" relative="1" as="geometry">
            <mxPoint x="-54" y="-11" as="offset" />
          </mxGeometry>
        </mxCell>
        <mxCell id="aaLv28ytoih7o6T027u6-14" style="edgeStyle=orthogonalEdgeStyle;rounded=0;orthogonalLoop=1;jettySize=auto;html=1;curved=0;" parent="1" source="aaLv28ytoih7o6T027u6-2" target="aaLv28ytoih7o6T027u6-8" edge="1">
          <mxGeometry relative="1" as="geometry">
            <Array as="points">
              <mxPoint x="760" y="710" />
              <mxPoint x="760" y="710" />
            </Array>
          </mxGeometry>
        </mxCell>
        <mxCell id="aaLv28ytoih7o6T027u6-15" value="SetActive()" style="edgeLabel;html=1;align=center;verticalAlign=middle;resizable=0;points=[];" parent="aaLv28ytoih7o6T027u6-14" vertex="1" connectable="0">
          <mxGeometry x="0.2267" relative="1" as="geometry">
            <mxPoint as="offset" />
          </mxGeometry>
        </mxCell>
        <mxCell id="aaLv28ytoih7o6T027u6-19" style="edgeStyle=orthogonalEdgeStyle;rounded=0;orthogonalLoop=1;jettySize=auto;html=1;curved=0;" parent="1" edge="1">
          <mxGeometry relative="1" as="geometry">
            <mxPoint x="820" y="855" as="sourcePoint" />
            <mxPoint x="586" y="855" as="targetPoint" />
            <Array as="points">
              <mxPoint x="761" y="855" />
              <mxPoint x="761" y="855" />
            </Array>
          </mxGeometry>
        </mxCell>
        <mxCell id="aaLv28ytoih7o6T027u6-20" value="SetActive()" style="edgeLabel;html=1;align=center;verticalAlign=middle;resizable=0;points=[];" parent="aaLv28ytoih7o6T027u6-19" vertex="1" connectable="0">
          <mxGeometry x="0.2267" relative="1" as="geometry">
            <mxPoint as="offset" />
          </mxGeometry>
        </mxCell>
      </root>
    </mxGraphModel>
  </diagram>
</mxfile>
